<svg width="21" height="20" viewBox="0 0 21 20" fill="none" xmlns="http://www.w3.org/2000/svg">
<path d="M19.4225 9.41101L13.5892 3.57768C13.432 3.42588 13.2215 3.34188 13.003 3.34378C12.7845 3.34568 12.5755 3.43332 12.421 3.58783C12.2665 3.74233 12.1788 3.95134 12.1769 4.16984C12.175 4.38834 12.259 4.59884 12.4108 4.75601L16.8217 9.16684H2.16667C1.94565 9.16684 1.73369 9.25464 1.57741 9.41092C1.42113 9.5672 1.33333 9.77916 1.33333 10.0002C1.33333 10.2212 1.42113 10.4332 1.57741 10.5894C1.73369 10.7457 1.94565 10.8335 2.16667 10.8335H16.8217L12.4108 15.2443C12.3312 15.3212 12.2678 15.4132 12.2241 15.5148C12.1804 15.6165 12.1574 15.7259 12.1565 15.8365C12.1555 15.9472 12.1766 16.0569 12.2185 16.1593C12.2604 16.2617 12.3223 16.3548 12.4005 16.433C12.4787 16.5113 12.5718 16.5731 12.6742 16.615C12.7766 16.6569 12.8864 16.678 12.997 16.6771C13.1076 16.6761 13.217 16.6531 13.3187 16.6094C13.4203 16.5658 13.5123 16.5023 13.5892 16.4227L19.4225 10.5893C19.5787 10.4331 19.6665 10.2211 19.6665 10.0002C19.6665 9.77921 19.5787 9.56728 19.4225 9.41101Z" fill="black"/>
</svg>
