<svg width="776" height="361" viewBox="0 0 776 361" fill="none" xmlns="http://www.w3.org/2000/svg">
<g clip-path="url(#clip0_157_2325)">
<path d="M570.53 40.8823C565.8 40.3225 560.238 40.4984 556.738 44.1772C556.099 44.849 555.652 46.4004 555.907 47.3121C556.69 50.0472 554.405 48.9116 551.64 49.6473C548.956 50.3671 545.12 53.1822 546.494 56.493C546.718 57.0529 541.253 57.6926 540.246 57.9486C538.264 58.4604 536.778 59.612 535.755 61.3394C535.276 62.1551 535.388 63.8666 535.771 64.6503C535.835 64.7943 532.255 64.9702 531.057 65.1621C527.525 65.7699 521.148 68.7129 521.164 73.1115C521.164 75.8305 520.941 75.2387 518.16 75.6706C515.443 76.0865 512.902 76.6943 510.361 77.7979C507.133 79.2054 507.021 84.2597 505.407 84.5156C501.683 85.0914 495.483 85.9871 492.973 89.314C492.206 90.3217 491.711 91.2813 492.079 92.5929C492.67 94.7682 493.82 93.5206 490.704 94.0004C487.124 94.5443 480.748 95.5839 478.59 99.0387C477.919 100.11 477.248 101.422 477.664 102.749C478.542 105.549 477.36 104.157 474.244 104.669C471.095 105.197 465.182 106.028 464.127 109.883C463.952 110.539 463.712 112.938 464.847 112.922C461.842 112.954 458.886 113.37 455.961 114.042C452.685 114.793 449.633 116.553 449.617 120.184C449.617 122.855 450.639 121.815 447.044 122.567C444.295 123.143 441.898 123.83 439.932 125.91C436.8 129.205 440.939 134.243 443 136.674C443.608 137.394 444.583 136.37 444.007 135.666C440.859 132.931 440.475 129.572 442.841 125.59C445.27 123.958 448.834 123.942 451.646 123.75C452.253 123.702 452.685 123.079 452.349 122.519C448.05 114.905 462.849 114.634 465.901 114.602C466.541 114.602 466.94 113.898 466.621 113.338C462.801 106.62 476.561 106.012 479.645 105.948C480.284 105.948 480.7 105.229 480.38 104.669C476.001 97.1354 490.736 95.6639 494.412 95.264C495.147 95.184 495.578 94.3683 495.019 93.7925C490.209 88.7862 505.663 86.1951 507.644 86.0991C508.22 86.0671 508.587 85.5713 508.475 85.0115C506.909 77.7339 518.288 77.302 522.411 76.8862C522.922 76.8382 523.354 76.4063 523.194 75.8465C520.988 68.2331 531.984 65.7219 536.97 66.6176C537.657 66.7456 538.136 66.1218 537.833 65.482C534.556 58.6363 545.056 58.5564 547.853 58.7003C548.284 58.7323 548.748 58.2045 548.556 57.7726C545.584 50.671 554.821 50.527 558.033 50.751C558.768 50.799 559.152 49.9352 558.832 49.3594C555.124 42.6737 568.213 42.8176 570.514 42.9296C571.825 42.9936 571.761 41.0742 570.514 40.9303L570.53 40.8823Z" fill="#575757"/>
<path d="M443.911 136.866C465.917 122.679 487.812 108.348 509.578 93.8085C521.883 85.6033 534.141 77.3341 546.255 68.8569C554.101 63.3708 563.131 58.0605 569.443 50.735C569.619 50.5271 569.395 50.1752 569.14 50.3351C548.588 63.5947 529.027 78.6136 508.635 92.1931C486.853 106.716 464.799 120.839 443.096 135.459C442.233 136.034 443.032 137.426 443.911 136.866Z" fill="#575757"/>
<path d="M461.171 243.742C456.648 243.646 450.192 245.022 446.82 248.285C445.637 249.436 444.934 250.348 445.142 252.043C445.414 254.251 447.587 253.067 443.879 253.675C438.622 254.538 431.318 256.042 428.33 260.968C427.658 262.056 427.738 263.911 428.362 264.999C428.058 264.455 421.33 265.927 419.748 266.358C418.134 266.806 415.577 267.798 414.778 269.429C414.378 270.229 413.227 273.636 414.969 273.604C410.063 273.668 403.383 274.068 400.187 278.322C399.372 279.41 399.596 281.489 400.219 282.593C399.691 281.649 391.988 284.96 391.03 285.6C386.443 288.719 390.694 294.557 393.107 297.372C393.635 297.98 394.737 297.148 394.242 296.508C392.404 294.109 388.265 289.471 392.963 286.288C395.392 284.656 398.956 284.656 401.753 284.448C402.376 284.4 402.808 283.777 402.472 283.185C398.189 275.603 412.972 275.331 416.008 275.299C416.663 275.299 417.079 274.58 416.743 274.004C412.972 267.334 426.668 266.694 429.752 266.614C430.391 266.614 430.807 265.911 430.471 265.351C426.076 257.737 442.984 255.162 447.299 254.65C447.907 254.57 448.306 253.899 447.827 253.387C443.016 248.46 459.045 245.949 461.155 245.709C462.401 245.565 462.465 243.742 461.155 243.71L461.171 243.742Z" fill="#575757"/>
<path d="M394.034 297.596C403.815 291.422 413.467 285.04 423.136 278.706C429.4 274.596 435.649 270.469 441.898 266.342C448.466 262.008 455.881 258.089 461.491 252.523C461.65 252.363 461.491 252.011 461.251 252.107C454.842 254.794 449.217 259.305 443.432 263.128C436.368 267.798 429.273 272.436 422.193 277.075C412.508 283.409 402.76 289.647 393.235 296.204C392.388 296.796 393.155 298.172 394.05 297.612L394.034 297.596Z" fill="#575757"/>
<path d="M568.069 42.8816C570.37 42.7696 583.443 42.6257 579.735 49.3114C579.416 49.8872 579.815 50.7669 580.534 50.703C583.747 50.479 592.984 50.639 590.011 57.7246C589.835 58.1565 590.283 58.6843 590.714 58.6523C593.527 58.4923 604.027 58.5883 600.75 65.434C600.447 66.0738 600.942 66.6976 601.613 66.5696C606.6 65.6739 617.595 68.1851 615.389 75.7985C615.229 76.3423 615.661 76.7742 616.172 76.8382C620.295 77.254 631.674 77.6859 630.108 84.9634C629.98 85.5233 630.364 86.0191 630.939 86.0511C632.921 86.1471 648.374 88.7382 643.564 93.7445C643.005 94.3363 643.452 95.136 644.171 95.216C647.847 95.6159 662.582 97.0874 658.203 104.621C657.867 105.181 658.299 105.884 658.938 105.9C662.022 105.964 675.782 106.572 671.963 113.29C671.643 113.85 672.042 114.538 672.682 114.554C675.734 114.586 690.533 114.873 686.234 122.471C685.914 123.047 686.33 123.67 686.937 123.702C688.967 123.766 690.964 124.038 692.946 124.502C699.003 125.766 697.421 132.004 694.576 135.618C694.017 136.338 694.991 137.346 695.583 136.626C698.172 133.539 700.936 130.036 698.779 126.022C696.861 122.455 687.944 123.638 688.935 120.344C689.877 117.209 686.298 115.337 684.044 114.41C681.679 113.434 678.898 113.226 676.373 113.002C672.778 112.666 674.807 113.162 674.488 110.043C674.136 106.54 668.447 105.421 665.89 104.861C664.34 104.525 660.344 104.269 660.44 104.109C661.079 103.005 661.271 101.022 660.552 99.8864C658.171 96.0957 653.376 95.0401 649.269 94.1764C648.31 93.9844 647.304 93.8245 646.329 93.6965C643.532 93.3286 645.817 93.8405 645.897 93.6965C646.457 92.6249 647.08 91.2173 646.217 90.0497C643.548 86.4989 638.594 85.4433 634.471 84.6436C631.962 84.1477 632.185 84.7555 632.042 82.2284C631.962 80.7889 630.635 79.1574 629.437 78.4536C627.439 77.254 617.403 75.3827 617.419 74.455C617.435 69.4807 613.408 67.0815 609.157 65.53C607.255 64.8422 604.522 64.3944 602.492 64.7622C603.627 64.5543 603.02 62.1071 602.908 61.4354C602.173 57.4207 594.981 57.0688 592.073 57.0208C594.134 57.0528 589.612 50.607 588.397 50.1272C587.422 49.7433 582.564 48.1438 582.212 48.7196C583.123 47.2321 582.692 45.6967 582.005 44.2891C579.959 40.0186 571.681 40.3544 568.053 40.7863C566.806 40.9303 566.743 42.8496 568.053 42.7856L568.069 42.8816Z" fill="#575757"/>
<path d="M695.519 135.459C674.36 121.191 652.865 107.42 631.61 93.2807C610.659 79.3494 590.586 63.9466 569.475 50.3351C569.22 50.1752 568.996 50.5271 569.172 50.735C575.149 57.6927 583.603 62.699 591.034 67.9292C603.563 76.7583 616.284 85.2994 629.037 93.8085C650.804 108.348 672.714 122.679 694.704 136.866C695.583 137.442 696.382 136.05 695.519 135.459Z" fill="#575757"/>
<path d="M616.46 39.0749C614.878 41.826 615.134 44.8969 615.245 47.9999C615.261 48.6077 615.709 48.9916 616.284 49.0395C628.382 50.1432 642.621 51.6467 654.575 49.3594C655.038 49.2635 655.326 48.7836 655.342 48.3518C655.502 45.4248 655.023 42.4817 654.559 39.6027C654.479 39.1389 654.016 38.9149 653.616 38.883C641.391 37.6834 628.877 37.0436 616.62 38.2752C615.485 38.3871 615.437 40.0826 616.62 40.0826C625.537 40.1625 634.423 39.4428 643.356 39.8906C646.441 40.0506 649.525 40.3865 652.593 40.7223C653.584 40.8343 652.593 39.4268 652.977 42.5457C653.169 44.0972 653.265 45.6647 653.313 47.2322C653.36 48.9116 629.117 47.2641 626.784 47.2322C623.348 47.1682 619.928 47.1682 616.508 46.9762C617.85 47.0402 617.227 46.9762 617.179 44.737C617.131 42.7696 617.211 41.0422 616.796 39.1229C616.764 38.9629 616.524 38.9469 616.46 39.0749Z" fill="#575757"/>
<path d="M623.156 49.0236C622.868 57.9166 621.734 67.3534 622.757 76.1984C622.852 77.0461 623.971 77.0461 624.067 76.1984C625.122 67.3534 624.594 57.9166 624.339 49.0236C624.323 48.2558 623.172 48.2558 623.156 49.0236Z" fill="#575757"/>
<path d="M647.336 48.6876C645.945 63.5306 646.648 79.3173 647.304 94.2083C647.352 95.3279 648.998 95.3279 649.046 94.2083C649.669 79.3173 649.749 63.5306 648.326 48.6876C648.263 48.0478 647.384 48.0478 647.336 48.6876Z" fill="#575757"/>
<path d="M623.556 58.1725C631.466 59.7559 639.441 60.6836 647.495 59.7399C648.598 59.612 648.614 57.8526 647.495 57.9965C639.633 58.9242 631.706 58.0445 623.923 56.8449C623.06 56.717 622.677 57.9965 623.556 58.1725Z" fill="#575757"/>
<path d="M623.252 68.8888C630.364 71.6079 640.799 71.8478 648.039 69.4646C648.838 69.1927 648.742 67.8811 647.831 67.9291C639.537 68.345 631.85 69.4486 623.54 67.8651C622.868 67.7372 622.629 68.6489 623.252 68.8888Z" fill="#575757"/>
<path d="M629.165 80.0691C634.966 80.437 641.023 81.2047 646.808 80.6609C647.735 80.5649 647.735 79.3174 646.808 79.2214C641.023 78.6296 634.966 78.8215 629.165 79.1414C628.558 79.1734 628.558 80.0371 629.165 80.0851V80.0691Z" fill="#575757"/>
<path d="M561.005 56.9408C562.811 56.1571 564.425 55.1814 566.071 54.1098C568.772 52.3823 569.124 51.9825 571.521 54.1577C574.286 56.6529 577.786 59.276 581.206 60.7315C581.365 60.7955 581.573 60.6516 581.461 60.4756C578.856 56.1731 573.247 54.2537 569.891 50.5909C569.619 50.303 569.236 50.383 568.948 50.5909C566.279 52.6702 563.402 54.5256 560.846 56.7489C560.734 56.8448 560.877 57.0048 560.989 56.9408H561.005Z" fill="#575757"/>
<path d="M570.115 78.2937C559.056 76.9181 550.618 86.9628 552.407 97.8231C554.261 109.131 566.902 114.649 576.827 109.163C585.169 104.541 587.582 92.177 583.219 84.1637C577.018 72.7915 560.078 77.27 555.044 87.1227C554.709 87.7785 555.588 88.2743 556.019 87.6985C560.174 81.9245 565.049 78.6136 572.384 79.0614C577.466 79.3653 581.445 82.6602 583.267 87.2827C586.16 94.6402 582.372 103.485 575.692 107.212C566.934 112.09 555.891 106.124 554.948 96.4316C554.054 87.3306 561.197 79.3653 570.131 78.8695C570.498 78.8535 570.482 78.3576 570.131 78.3097L570.115 78.2937Z" fill="#575757"/>
<path d="M553.478 97.3273C557.122 96.9114 560.286 93.4726 562.939 91.2013C567.622 87.2027 573.135 84.2437 577.418 79.7652C577.61 79.5732 577.354 79.2054 577.114 79.3653C573.119 82.2603 568.74 84.8355 564.953 88.0024C561.165 91.1694 557.489 94.3363 553.446 97.1993C553.398 97.2313 553.414 97.3273 553.478 97.3113V97.3273Z" fill="#575757"/>
<path d="M555.859 103.965C559.615 103.821 562.747 101.166 565.592 98.9747C571.345 94.5122 576.779 89.7298 582.324 85.0274C582.724 84.6915 582.196 83.9878 581.765 84.2917C577.098 87.5386 572.943 91.4253 568.5 94.9441C564.777 97.9031 560.622 102.574 555.795 103.469C555.524 103.517 555.588 103.965 555.859 103.965Z" fill="#575757"/>
<path d="M563.067 109.995C570.962 105.357 578.025 98.6548 585.233 93.0407C585.488 92.8488 585.153 92.4329 584.897 92.5929C577.162 97.3273 569.3 103.325 562.843 109.691C562.699 109.835 562.891 110.091 563.067 109.979V109.995Z" fill="#575757"/>
<path d="M566.343 79.2533C566.759 80.7568 568.197 81.9564 569.092 83.236C570.626 85.4592 572.144 87.6985 573.646 89.9377C576.14 93.6645 578.505 99.5185 582.037 102.286C582.34 102.525 582.836 102.318 582.708 101.886C582.18 99.9184 580.646 98.1909 579.528 96.4795C577.738 93.7124 575.932 90.9614 574.078 88.2263C572.448 85.8111 569.395 79.9411 566.359 79.2053C566.343 79.2053 566.311 79.2053 566.327 79.2373L566.343 79.2533Z" fill="#575757"/>
<path d="M557.665 83.5559C564.186 91.1214 568.708 100.11 574.525 108.188C575.101 108.987 576.459 108.236 575.868 107.404C570.083 99.1667 565.544 90.0498 558.097 83.1241C557.793 82.8522 557.394 83.268 557.649 83.5719L557.665 83.5559Z" fill="#575757"/>
<path d="M554.613 89.2341C557.074 92.7369 559.247 96.3037 561.133 100.142C562.763 103.453 564.505 107.084 567.27 109.595C567.781 110.059 568.66 109.451 568.245 108.843C563.978 102.254 560.59 94.5283 554.98 88.9302C554.789 88.7382 554.421 88.9941 554.581 89.2341H554.613Z" fill="#575757"/>
<path d="M571.809 73.1914C558.368 72.2797 547.198 81.7006 546.91 95.4079C546.638 108.236 558.32 117.209 570.258 117.081C583.427 116.953 591.769 105.085 590.267 92.6729C589.372 85.2194 583.97 78.5336 577.977 74.471C571.681 70.2004 564.122 72.8075 558.033 75.8785C557.649 76.0704 557.921 76.7102 558.32 76.5663C564.681 74.1991 570.77 72.5996 577.21 75.7825C584.178 79.2374 588.94 87.5386 589.739 94.9761C591.05 107.148 579.543 115.481 568.66 115.561C557.41 115.641 549.323 106.108 548.588 95.4239C547.693 82.4043 560.43 74.5669 571.809 73.7672C572.176 73.7352 572.176 73.2234 571.809 73.2074V73.1914Z" fill="#575757"/>
<path d="M391.126 334.895C391.365 341.853 390.918 348.827 390.854 355.784C390.854 356.424 391.397 357.016 392.052 356.984C429.305 355.768 466.7 356.424 503.985 356.2C558.065 355.864 612.161 355.609 666.241 354.521C676.981 354.297 687.736 354.153 698.459 353.481C699.067 353.449 699.802 352.937 699.706 352.234C698.827 345.244 699.802 337.727 699.834 330.705C699.834 330.001 699.258 329.489 698.587 329.457C676.23 328.306 653.233 330.177 630.875 331.249C603.691 332.544 576.235 332.128 549.019 332.608C496.793 333.552 444.295 335.343 392.068 333.744C390.582 333.696 390.582 336.015 392.068 336.063C447.507 337.759 503.249 335.807 558.688 334.704C585.936 334.16 613.232 334.096 640.464 333.072C654.991 332.528 669.517 332.032 684.044 331.888C688.695 331.841 693.345 331.761 697.996 331.936C696.781 331.888 697.197 341.837 697.181 343.053C697.149 344.892 697.133 346.716 697.117 348.555C697.117 349.403 697.117 350.234 697.117 351.082C696.973 352.17 697.245 352.154 697.932 351.034C654.511 353.785 610.659 352.937 567.174 353.305C516.05 353.737 464.911 353.961 413.787 354.345C408.241 354.393 402.68 354.425 397.134 354.505C395.664 354.521 394.21 354.553 392.74 354.585C394.05 354.553 393.299 337.759 392.979 334.911C392.851 333.744 391.062 333.68 391.11 334.911L391.126 334.895Z" fill="#575757"/>
<path d="M459.285 126.47C458.071 167.72 460.308 208.97 459.892 250.236C459.605 278.45 459.956 306.681 459.429 334.895C459.413 336.047 461.059 335.983 461.171 334.895C464.127 307.721 462.433 279.698 462.721 252.411C462.913 234.209 463.664 216.055 462.785 197.854C461.634 174.134 462.657 150.078 460.292 126.47C460.228 125.846 459.317 125.814 459.301 126.47H459.285Z" fill="#575757"/>
<path d="M678.227 124.95C676.997 165.208 679.218 205.499 678.914 245.773C678.707 273.604 679.346 301.467 678.866 329.297C678.85 330.449 680.497 330.385 680.608 329.297C683.517 302.538 681.551 274.868 681.743 247.997C681.887 229.699 682.494 211.513 681.551 193.231C680.369 170.535 681.503 147.55 679.202 124.95C679.138 124.326 678.227 124.294 678.211 124.95H678.227Z" fill="#575757"/>
<path d="M484.312 139.217C482.602 153.66 483.497 168.759 483.193 183.298C483.001 192.895 482.825 202.492 482.65 212.089C482.65 212.952 483.369 213.64 484.216 213.656C495.754 213.88 507.325 214.104 518.847 213.336C519.486 213.288 520.141 212.792 520.094 212.089C518.4 188.129 517.441 163.721 518.559 139.729C518.591 139.073 517.968 138.465 517.313 138.481C506.621 138.897 495.93 138.545 485.239 138.513C483.672 138.513 483.672 140.945 485.239 140.945C490.337 140.977 495.419 141.073 500.517 141.153C504.416 141.201 516.082 138.929 515.89 143.888C515.443 155.436 515.859 167.016 516.258 178.564C516.466 184.754 516.753 190.928 517.025 197.102C517.153 200.093 519.294 210.857 515.779 210.873C507.133 210.921 498.471 210.761 489.825 210.633C488.611 210.617 487.412 210.585 486.197 210.569C483.113 210.505 485.83 210.185 485.798 212.041C485.83 210.841 485.846 209.626 485.878 208.426C486.006 201.9 486.134 195.358 486.213 188.833C486.421 172.566 488.083 155.42 486.182 139.233C486.038 138.034 484.456 138.034 484.312 139.233V139.217Z" fill="#575757"/>
<path d="M484.743 183.97C495.275 184.498 505.774 183.49 516.306 183.586C517.68 183.586 517.664 181.539 516.306 181.459C505.79 180.803 495.259 182.275 484.743 182.099C483.529 182.083 483.545 183.906 484.743 183.97Z" fill="#575757"/>
<path d="M485.494 152.893C491.903 150.158 496.729 145.087 502.003 140.689C502.658 140.145 501.731 139.249 501.076 139.761C495.802 143.968 491.2 149.15 484.999 152.029C484.408 152.301 484.919 153.133 485.494 152.893Z" fill="#575757"/>
<path d="M484.344 164.585C495.978 160.41 505.359 149.406 514.724 141.696C515.283 141.232 514.564 140.385 513.973 140.721C502.882 146.815 495.371 157.787 484.04 163.849C483.64 164.057 483.912 164.745 484.36 164.585H484.344Z" fill="#575757"/>
<path d="M484.36 178.42C497.049 173.11 506.302 162.217 517.217 154.172C518.048 153.564 517.313 152.221 516.402 152.765C504.624 159.786 496.234 171.047 483.976 177.492C483.481 177.748 483.832 178.628 484.36 178.404V178.42Z" fill="#575757"/>
<path d="M498.071 183.394C502.147 182.643 505.487 180.739 508.843 178.356C511.703 176.325 515.331 174.005 517.217 171.03C517.425 170.711 517.073 170.183 516.69 170.343C514.037 171.414 511.975 173.782 509.818 175.621C506.254 178.644 502.354 181.267 497.864 182.675C497.4 182.819 497.592 183.49 498.056 183.394H498.071Z" fill="#575757"/>
<path d="M501.571 141.025C505.183 146.895 510.121 151.549 515.235 156.092C516.018 156.779 517.169 155.644 516.386 154.94C511.416 150.525 506.366 145.935 502.546 140.449C502.131 139.857 501.188 140.385 501.571 141.025Z" fill="#575757"/>
<path d="M485.063 139.841C493.197 152.125 504.736 162.697 515.683 172.454C516.53 173.206 517.76 171.974 516.913 171.222C505.758 161.29 495.962 150.11 485.398 139.585C485.223 139.409 484.919 139.633 485.063 139.857V139.841Z" fill="#575757"/>
<path d="M484.28 158.843C490.273 167.64 497.528 175.509 505.231 182.834C506.19 183.746 507.66 182.291 506.685 181.379C498.95 174.101 492.174 166.12 485.111 158.203C484.711 157.755 483.944 158.347 484.28 158.843Z" fill="#575757"/>
<path d="M549.483 139.217C547.773 153.66 548.668 168.759 548.364 183.298C548.172 192.895 547.997 202.492 547.821 212.089C547.821 212.952 548.54 213.64 549.387 213.656C560.925 213.88 572.48 214.104 584.002 213.336C584.641 213.288 585.297 212.792 585.249 212.089C583.555 188.129 582.596 163.721 583.715 139.729C583.747 139.073 583.123 138.465 582.468 138.481C571.777 138.897 561.085 138.545 550.394 138.513C548.828 138.513 548.828 140.945 550.394 140.945C555.492 140.977 560.574 141.073 565.672 141.153C569.571 141.201 581.237 138.929 581.046 143.888C580.598 155.436 581.014 167.016 581.413 178.564C581.621 184.754 581.909 190.928 582.18 197.102C582.308 200.093 584.45 210.857 580.934 210.873C572.288 210.921 563.626 210.761 554.98 210.633C553.766 210.617 552.567 210.585 551.353 210.569C548.268 210.505 550.985 210.185 550.953 212.041C550.985 210.841 551.001 209.626 551.033 208.426C551.161 201.9 551.289 195.358 551.369 188.833C551.576 172.566 553.238 155.42 551.337 139.233C551.193 138.034 549.611 138.034 549.467 139.233L549.483 139.217Z" fill="#575757"/>
<path d="M549.914 183.97C560.446 184.498 570.946 183.49 581.477 183.586C582.852 183.586 582.836 181.539 581.477 181.459C570.962 180.803 560.43 182.275 549.914 182.099C548.7 182.083 548.716 183.906 549.914 183.97Z" fill="#575757"/>
<path d="M550.681 152.893C557.09 150.158 561.916 145.087 567.19 140.689C567.845 140.145 566.918 139.249 566.263 139.761C560.989 143.968 556.387 149.15 550.186 152.029C549.595 152.301 550.106 153.133 550.697 152.893H550.681Z" fill="#575757"/>
<path d="M549.515 164.585C561.149 160.41 570.53 149.406 579.879 141.696C580.438 141.232 579.719 140.385 579.128 140.721C568.037 146.815 560.526 157.787 549.195 163.849C548.796 164.057 549.067 164.745 549.515 164.585Z" fill="#575757"/>
<path d="M549.531 178.42C562.22 173.11 571.473 162.217 582.388 154.172C583.219 153.564 582.484 152.221 581.573 152.765C569.795 159.786 561.405 171.047 549.147 177.492C548.652 177.748 549.003 178.628 549.531 178.404V178.42Z" fill="#575757"/>
<path d="M563.243 183.394C567.318 182.643 570.658 180.739 574.014 178.356C576.875 176.325 580.502 174.005 582.388 171.03C582.596 170.711 582.244 170.183 581.861 170.343C579.208 171.414 577.146 173.782 574.989 175.621C571.425 178.628 567.526 181.267 563.035 182.675C562.571 182.819 562.763 183.49 563.227 183.394H563.243Z" fill="#575757"/>
<path d="M566.743 141.025C570.354 146.895 575.292 151.549 580.406 156.092C581.19 156.779 582.34 155.644 581.557 154.94C576.587 150.525 571.537 145.935 567.717 140.449C567.302 139.857 566.359 140.385 566.743 141.025Z" fill="#575757"/>
<path d="M550.234 139.841C558.368 152.125 569.907 162.697 580.87 172.454C581.717 173.206 582.947 171.974 582.1 171.222C570.946 161.29 561.133 150.11 550.586 139.585C550.41 139.409 550.106 139.633 550.25 139.857L550.234 139.841Z" fill="#575757"/>
<path d="M549.451 158.843C555.444 167.64 562.699 175.509 570.402 182.834C571.361 183.746 572.831 182.291 571.857 181.379C564.122 174.101 557.346 166.12 550.282 158.203C549.882 157.755 549.115 158.347 549.451 158.843Z" fill="#575757"/>
<path d="M619.065 139.217C617.355 153.66 618.25 168.759 617.946 183.298C617.754 192.895 617.579 202.492 617.403 212.089C617.403 212.952 618.122 213.64 618.969 213.656C630.507 213.88 642.062 214.104 653.584 213.336C654.223 213.288 654.879 212.792 654.831 212.089C653.137 188.129 652.178 163.721 653.297 139.729C653.329 139.073 652.705 138.465 652.05 138.481C641.359 138.897 630.667 138.545 619.976 138.513C618.41 138.513 618.41 140.945 619.976 140.945C625.074 140.977 630.156 141.073 635.254 141.153C639.153 141.201 650.819 138.929 650.628 143.888C650.18 155.436 650.596 167.016 650.995 178.564C651.203 184.754 651.491 190.928 651.762 197.102C651.89 200.093 654.032 210.857 650.516 210.873C641.87 210.921 633.208 210.761 624.562 210.633C623.348 210.617 622.149 210.585 620.935 210.569C617.85 210.505 620.567 210.185 620.535 212.041C620.567 210.841 620.583 209.626 620.615 208.426C620.743 201.9 620.871 195.358 620.951 188.833C621.158 172.566 622.82 155.42 620.919 139.233C620.775 138.034 619.193 138.034 619.049 139.233L619.065 139.217Z" fill="#575757"/>
<path d="M619.496 183.97C630.028 184.498 640.528 183.49 651.059 183.586C652.434 183.586 652.418 181.539 651.059 181.459C640.544 180.803 630.012 182.275 619.496 182.099C618.282 182.083 618.298 183.906 619.496 183.97Z" fill="#575757"/>
<path d="M620.264 152.893C626.672 150.158 631.498 145.087 636.772 140.689C637.427 140.145 636.5 139.249 635.845 139.761C630.571 143.968 625.969 149.15 619.768 152.029C619.177 152.301 619.688 153.133 620.264 152.893Z" fill="#575757"/>
<path d="M619.097 164.585C630.731 160.41 640.112 149.406 649.477 141.696C650.036 141.232 649.317 140.385 648.726 140.721C637.635 146.815 630.124 157.787 618.793 163.849C618.394 164.057 618.665 164.745 619.113 164.585H619.097Z" fill="#575757"/>
<path d="M619.129 178.42C631.818 173.11 641.071 162.217 651.986 154.172C652.817 153.564 652.082 152.221 651.171 152.765C639.393 159.786 631.003 171.063 618.745 177.492C618.25 177.748 618.601 178.628 619.129 178.404V178.42Z" fill="#575757"/>
<path d="M632.841 183.394C636.916 182.643 640.256 180.739 643.612 178.356C646.473 176.325 650.084 174.005 651.986 171.03C652.194 170.711 651.842 170.183 651.459 170.343C648.806 171.414 646.76 173.782 644.587 175.621C641.023 178.644 637.124 181.267 632.633 182.675C632.169 182.819 632.361 183.49 632.825 183.394H632.841Z" fill="#575757"/>
<path d="M636.325 141.025C639.936 146.895 644.874 151.533 649.988 156.092C650.772 156.779 651.922 155.644 651.139 154.94C646.169 150.509 641.119 145.935 637.299 140.449C636.884 139.857 635.941 140.385 636.325 141.025Z" fill="#575757"/>
<path d="M619.816 139.841C627.95 152.125 639.489 162.697 650.452 172.454C651.299 173.206 652.529 171.974 651.682 171.222C640.528 161.29 630.715 150.11 620.152 139.585C619.976 139.409 619.672 139.633 619.816 139.857V139.841Z" fill="#575757"/>
<path d="M619.033 158.843C625.026 167.64 632.281 175.509 639.984 182.834C640.943 183.746 642.413 182.291 641.439 181.379C633.704 174.101 626.928 166.104 619.864 158.203C619.464 157.755 618.697 158.347 619.033 158.843Z" fill="#575757"/>
<path d="M547.437 333.712C548.236 319.461 547.182 305.098 547.309 290.814C547.421 278.243 547.869 265.703 547.885 253.131C547.885 247.485 547.997 241.855 548.22 236.225C548.172 237.344 546.255 237.088 548.572 237.072C549.93 237.072 551.289 237.04 552.647 237.024C560.957 236.944 569.268 236.864 577.562 236.816C581.126 236.784 584.705 236.8 588.269 236.8C589.404 236.8 590.523 236.8 591.657 236.8C592.952 237.024 592.92 236.641 591.577 235.617C591.577 236.305 591.577 236.976 591.577 237.664C591.641 246.157 591.689 254.65 591.737 263.144C591.865 285.76 592.408 308.376 592.472 330.993C592.472 332.768 595.221 332.768 595.221 330.993C595.093 299.179 594.454 267.35 594.102 235.521C594.102 234.833 593.527 234.257 592.84 234.257C577.562 234.289 562.284 234.481 547.022 234.657C546.351 234.657 545.839 235.201 545.823 235.857C544.497 268.246 543.953 301.339 545.935 333.696C545.999 334.656 547.373 334.656 547.437 333.696V333.712Z" fill="#575757"/>
<path d="M545.44 290.382C560.941 293.837 577.818 292.046 593.527 290.878C594.805 290.782 594.821 288.959 593.527 288.879C577.594 287.999 561.868 290.926 545.903 288.703C544.816 288.559 544.305 290.142 545.44 290.382Z" fill="#575757"/>
<path d="M585.377 280.594C589.596 280.594 589.596 274.036 585.377 274.036C581.158 274.036 581.158 280.594 585.377 280.594Z" fill="#575757"/>
<path d="M619.464 332.112C612.736 327.25 609.061 323.651 608.15 315.062C607.734 311.175 613.328 312.247 616.3 312.087C619.4 311.911 622.485 312.023 625.585 312.279C630.763 312.695 635.941 313.047 641.119 313.415C642.27 313.495 640.943 312.599 640.927 312.823C640.863 313.687 640.799 314.534 640.751 315.398C640.336 321.38 640.192 328.514 633.959 331.473C633.32 331.777 633.784 332.864 634.439 332.608C642.413 329.537 642.014 319.845 642.541 312.647C642.573 312.183 642.142 311.879 641.742 311.847C630.076 310.999 618.506 309.512 606.855 311.383C606.408 311.447 606.184 311.927 606.152 312.311C605.433 320.42 609.476 332.704 619.337 332.64C619.64 332.64 619.688 332.272 619.48 332.112H619.464Z" fill="#575757"/>
<path d="M521.388 334.959C529.906 331.696 530.769 318.437 527.908 311.031C527.764 310.664 527.445 310.296 526.997 310.328C515.731 311.383 503.937 311.815 492.83 313.878C492.446 313.942 492.238 314.326 492.222 314.678C491.711 322.899 493.037 331.504 501.156 335.375C502.019 335.791 502.786 334.511 501.907 334.08C497.384 331.888 495.323 328.45 494.188 323.667C492.83 317.957 493.453 315.142 499.829 314.726C505.343 314.374 510.808 313.718 516.306 313.191C518.751 312.951 521.212 312.743 523.657 312.519C525.399 312.359 526.534 312.775 526.182 311.863C528.659 318.437 527.972 330.289 520.909 333.872C520.317 334.176 520.733 335.199 521.372 334.959H521.388Z" fill="#575757"/>
<path d="M502.946 312.647C496.921 309.672 484.839 295.085 498.823 293.933C499.51 293.869 500.165 293.101 499.686 292.414C495.578 286.496 486.837 268.582 500.517 268.486C501.108 268.486 501.475 267.718 501.012 267.286C498.215 264.663 492.366 250.604 502.035 254.49C502.466 254.666 502.834 254.235 502.866 253.851C503.106 250.972 503.729 248.077 504.4 245.262C504.863 243.278 505.583 241.375 506.43 239.519C508.315 235.393 513.477 237.232 514.74 240.751C516.753 246.381 516.626 253.371 516.226 259.289C516.162 260.121 517.249 260.456 517.792 259.929C522.139 255.786 522.906 266.454 522.938 267.43C523.13 272.356 519.614 276.131 516.722 279.57C516.05 280.37 516.658 281.697 517.776 281.393C521.548 279.474 524.089 280.93 525.351 285.744C524.345 287.279 523.21 288.719 521.915 290.015C520.365 291.71 518.671 293.245 517.121 294.925C516.61 295.469 516.817 296.396 517.569 296.588C525.255 298.716 522.203 306.985 518.655 310.728C517.984 311.447 518.975 312.391 519.71 311.783C522.555 309.416 524.632 305.369 524.089 301.563C523.753 299.243 523.098 297.804 521.468 296.172C519.374 294.093 519.055 295.773 522.011 292.894C525.144 289.839 528.819 286.368 528.164 281.681C527.541 277.315 519.662 278.578 517.217 279.298C517.569 279.906 517.92 280.514 518.272 281.121C523.338 274.964 529.171 263.943 521.548 257.034C521.1 256.634 520.126 256.33 519.55 256.554C517.553 257.353 518.128 258.457 518.16 257.465C518.32 252.747 517.872 248.029 516.945 243.406C515.97 238.512 512.151 231.17 506.813 236.385C503.985 239.136 502.978 244.254 502.163 247.901C501.779 249.596 501.635 251.324 501.571 253.067C501.603 252.091 498.391 252.283 497.848 252.427C492.702 253.851 495.099 267.174 498.775 267.094C490.72 267.238 491.008 276.563 492.51 282.129C493.101 284.304 494.076 286.4 495.035 288.415C495.706 289.839 497.624 291.854 496.617 292.078C493.389 292.766 491.136 294.013 490.225 297.308C488.307 304.282 496.889 311.783 502.37 314.038C503.185 314.374 503.761 312.999 502.978 312.615L502.946 312.647Z" fill="#575757"/>
<path d="M618.921 310.872C615.741 309.368 613.216 307.753 611.266 304.73C607.383 298.684 611.746 295.213 618.026 297.356C618.921 297.66 619.672 296.572 619.225 295.805C618.058 293.837 616.732 291.966 615.565 289.999C614.606 288.399 613.823 286.72 613.248 284.944C611.474 279.458 619.145 280.578 621.878 281.01C622.453 281.106 623.06 280.402 622.517 279.922C617.051 275.14 611.026 261.288 621.942 259.113C622.453 259.017 622.741 258.313 622.437 257.881C621.063 255.914 620.711 253.659 620.519 251.292C619.944 244.462 627.231 247.421 627.008 252.587C626.8 257.625 624.93 262.44 624.61 267.462C624.578 268.102 625.346 268.486 625.857 268.182C637.252 261.288 632.841 275.715 630.491 279.954C630.124 280.626 630.907 281.585 631.626 281.09C636.037 277.971 643.292 274.756 640.496 283.425C638.945 288.255 635.813 293.453 631.978 296.78C631.402 297.276 631.898 298.14 632.553 298.172C641.806 298.572 636.772 307.801 634.567 311.207C633.991 312.087 635.398 312.903 635.973 312.023C637.827 309.16 640.32 304.794 639.505 301.211C639.217 299.947 638.786 298.396 637.523 297.708C635.318 296.508 633.608 297.612 635.142 295.965C637.507 293.437 649.221 274.228 639.713 274.404C637.891 274.436 635.653 276.275 634.295 277.171C632.425 278.386 632.122 280.53 633.288 278.099C633.768 277.107 634.151 276.003 634.519 274.964C635.653 271.829 636.612 267.526 634.215 264.775C633.08 263.479 626.64 264.119 626.432 265.655C627.247 259.753 629.293 254.027 628.494 247.997C627.631 241.487 619.496 241.983 618.937 248.46C618.761 250.46 618.873 252.331 619.193 254.315C619.704 257.497 621.334 257.21 618.282 258.345C614.798 259.641 613.935 263.431 614.159 266.71C614.462 270.965 616.955 275.267 619.448 278.594C621.302 281.074 620.679 279.426 617.93 279.234C616.156 279.106 614.43 279.522 612.928 280.434C607.654 283.633 615.709 293.869 617.403 296.844C617.802 296.332 618.202 295.805 618.601 295.293C602.285 289.391 606.456 311.639 618.665 311.831C619.177 311.831 619.417 311.079 618.937 310.84L618.921 310.872Z" fill="#575757"/>
<path d="M407.666 287.791C407.666 296.7 408.353 305.561 408.193 314.486C408.082 320.884 406.755 328.514 408.289 334.751C408.561 335.839 410.175 335.823 410.463 334.751C412.109 328.466 411.07 320.964 411.23 314.486C411.438 305.545 411.677 296.284 409.456 287.551C409.2 286.544 407.682 286.768 407.682 287.791H407.666Z" fill="#575757"/>
<path d="M422.465 335.471C424.654 324.211 422.592 304.954 436.4 300.331C447.14 296.732 452.381 307.385 453.18 316.022C453.756 322.356 452.605 328.642 452.829 334.959C452.877 336.287 454.842 336.287 454.89 334.959C455.37 321.252 459.029 295.165 437.391 297.404C422.417 298.956 418.661 323.907 420.803 335.455C420.962 336.303 422.321 336.287 422.481 335.455L422.465 335.471Z" fill="#575757"/>
<path d="M437.854 298.86C437.503 306.137 437.822 313.479 437.743 320.772C437.695 325.363 436.448 331.265 438.126 335.599C438.446 336.399 439.437 336.399 439.756 335.599C441.482 331.281 440.507 325.363 440.523 320.772C440.555 313.399 440.523 305.929 439.197 298.668C439.053 297.868 437.886 298.108 437.854 298.844V298.86Z" fill="#575757"/>
<path d="M432.277 321.3C433.827 321.3 435.122 320.004 435.122 318.453C435.122 316.902 433.827 315.606 432.277 315.606C430.727 315.606 429.432 316.902 429.432 318.453C429.432 320.004 430.727 321.3 432.277 321.3Z" fill="#575757"/>
</g>
<g clip-path="url(#clip1_157_2325)">
<path d="M194.73 103.846C178.477 95.3142 160.896 88.9397 143.979 81.8839C121.861 72.6546 99.7421 63.4578 77.4292 54.6503C75.2578 53.7906 71.1582 50.9683 68.7276 51.8604C62.0029 54.3421 55.2783 56.8238 48.5698 59.3704C23.1457 69.0376 -2.21357 78.8994 -27.6053 88.6315C-36.9064 92.1999 -46.2399 95.7035 -55.4762 99.4665C-56.6267 99.9369 -56.1243 101.835 -54.9576 101.364C-14.2856 84.6738 27.2777 70.2054 68.2577 54.2935C70.7045 53.3527 73.6698 55.3964 77.3805 57.0022C86.6817 61.0248 95.9828 65.0798 105.349 68.9565C129.298 78.867 153.151 89.0694 177.197 98.7529C182.723 100.975 188.313 103.116 193.806 105.436C194.86 105.89 195.816 104.414 194.73 103.846Z" fill="#575757"/>
<path d="M180.633 110.788C180.811 147.3 180.568 183.827 180.535 220.339C180.535 243.874 180.454 267.394 180.308 290.929C180.227 303.435 180.811 316.249 179.855 328.722C179.741 330.279 182.139 330.263 182.253 328.722C184.943 293.459 183.241 257.418 183.322 222.074C183.371 198.312 183.322 174.549 183.16 150.787C183.063 137.519 183.549 124.008 182.075 110.788C181.977 109.88 180.616 109.831 180.616 110.788H180.633Z" fill="#575757"/>
<path d="M-40.212 330.863C1.3027 333.15 43.3683 331.106 84.9316 330.701C106.532 330.49 128.148 330.279 149.748 330.101C160.07 330.02 170.748 329.192 181.038 329.89C182.593 329.987 182.577 327.587 181.038 327.489C171.299 326.824 160.961 327.327 151.076 327.392C129.655 327.522 108.217 327.716 86.7951 327.895C44.535 328.235 1.99947 327.295 -40.212 329.403C-41.1518 329.452 -41.1518 330.814 -40.212 330.863Z" fill="#575757"/>
<path d="M85.8714 311.95C107.131 314.156 129.379 312.242 150.769 312.048C160.799 311.966 171.072 312.567 181.07 311.821C182.35 311.723 182.804 309.728 181.394 309.452C172.498 307.717 162.014 309.225 153.005 309.274C130.902 309.387 107.828 307.814 85.8877 310.474C84.964 310.588 84.9478 311.837 85.8877 311.934L85.8714 311.95Z" fill="#575757"/>
<path d="M-40.4064 312.745C-30.7164 314.302 -20.2648 313.459 -10.4938 313.394C4.26803 313.28 19.1109 313.589 33.8566 312.875C35.3959 312.794 35.4121 310.523 33.8566 310.474C19.1109 309.988 4.26803 310.523 -10.4938 310.572C-20.2973 310.604 -30.7002 309.858 -40.4064 311.366C-41.1032 311.48 -41.1032 312.664 -40.4064 312.778V312.745Z" fill="#575757"/>
<path d="M85.7418 108.193C85.9201 144.721 85.515 181.281 85.4016 217.809C85.3205 241.36 85.2071 264.896 84.9965 288.447C84.883 300.969 85.4178 313.767 84.4617 326.256C84.3483 327.814 86.7465 327.797 86.8599 326.256C89.566 290.961 88.0104 254.92 88.1886 219.544C88.3021 195.765 88.3183 171.987 88.1886 148.208C88.1238 134.94 88.6586 121.412 87.184 108.193C87.0868 107.285 85.7256 107.236 85.7256 108.193H85.7418Z" fill="#575757"/>
<path d="M87.2812 294.157C73.7346 290.88 57.7899 293.67 44.0327 294.416C43.3197 294.449 42.704 294.984 42.7202 295.73C42.7688 298.634 42.8174 301.553 42.866 304.457C42.8822 305.965 45.1832 305.965 45.2156 304.457C45.2318 302.899 44.3244 297.044 46.6253 296.995C51.1949 296.898 55.7482 296.817 60.3177 296.655C69.1813 296.347 78.5472 296.914 87.2974 295.373C87.9294 295.26 87.8808 294.287 87.2974 294.157H87.2812Z" fill="#575757"/>
<path d="M85.6608 305.365C68.7114 303.889 51.3407 304.813 34.3427 305.251C33.6783 305.268 33.257 305.754 33.2084 306.387C32.9005 310.02 32.8519 313.572 33.0464 317.206C33.1274 318.665 35.396 318.682 35.3312 317.206C35.2015 314.902 33.7108 307.538 37.4863 307.441C42.5257 307.311 47.5814 307.23 52.6208 307.165C63.6234 307.019 74.7069 307.392 85.6608 306.435C86.3576 306.371 86.3576 305.414 85.6608 305.365Z" fill="#575757"/>
<path d="M86.2279 317.757C68.3063 313.702 47.9054 317.222 29.5139 316.8C28.8171 316.8 28.3148 317.368 28.2824 318.033C28.1203 322.039 28.0717 326.046 28.1527 330.068C28.1852 331.625 30.5833 331.625 30.5509 330.068C30.5023 327.116 30.5509 324.196 30.6157 321.244C30.6482 320.304 30.6806 319.379 30.713 318.438C29.4491 319.071 29.2546 319.363 30.162 319.282C34.6019 319.395 39.0418 319.476 43.4817 319.509C57.4496 319.639 72.3411 320.093 86.1469 318.309C86.4386 318.276 86.5682 317.822 86.2279 317.741V317.757Z" fill="#575757"/>
<path d="M119.398 220.939C117.615 238.814 118.117 257.288 118.701 275.212C118.717 275.893 119.284 276.59 120.03 276.542C131.47 275.779 143.072 276.234 154.56 275.812C155.241 275.779 155.792 275.26 155.792 274.563C155.857 256.542 157.007 238.635 155.549 220.615C155.5 220.096 155.127 219.577 154.544 219.609C143.072 220.274 131.502 219.414 120.013 219.982C118.798 220.047 118.782 221.945 120.013 221.88C129.898 221.393 139.847 221.572 149.748 221.556C152.454 221.556 153.556 220.566 153.458 223.583C153.296 228.579 153.766 233.672 153.912 238.668C154.171 247.735 154.204 256.786 153.669 265.837C153.507 268.594 153.377 271.351 153.329 274.125C154.56 273.379 154.544 273.136 153.313 273.363C151.676 273.411 150.056 273.476 148.419 273.541C141.646 273.817 135.002 273.898 128.213 273.687C123.351 273.541 121.31 274.531 121.18 268.805C121.05 263.485 121.067 258.164 121.099 252.844C121.148 242.252 121.666 231.482 120.662 220.923C120.58 220.112 119.479 220.112 119.398 220.923V220.939Z" fill="#575757"/>
<path d="M118.944 240.76C123.935 242.269 130.011 241.052 135.213 241.117C141.662 241.198 148.111 241.62 154.56 241.75C156.408 241.782 156.391 238.976 154.56 238.895C148.111 238.619 141.662 238.392 135.213 238.279C130.011 238.181 123.513 237.322 118.83 239.933C118.49 240.128 118.571 240.63 118.944 240.744V240.76Z" fill="#575757"/>
<path d="M120.354 260.403C131.648 261.133 143.282 260.533 154.56 259.949C156.116 259.868 156.116 257.613 154.56 257.548C143.266 257.045 131.615 257.597 120.354 258.392C119.057 258.489 119.041 260.338 120.354 260.419V260.403Z" fill="#575757"/>
<path d="M137.287 220.939C137.028 238.879 137.141 256.948 137.643 274.887C137.676 276.331 139.782 276.315 139.863 274.887C140.884 256.98 139.896 238.846 139.572 220.939C139.539 219.463 137.319 219.463 137.287 220.939Z" fill="#575757"/>
<path d="M117.55 70.8866C117.81 66.0044 117.972 61.1383 118.053 56.2561C118.101 52.4605 117.923 50.7736 122.347 50.3844C125.037 50.1573 127.743 50.1735 130.433 50.1573C134.046 50.1411 132.571 75.558 132.588 78.8831C132.588 80.4889 134.953 80.4565 135.051 78.8831C135.683 68.924 135.278 58.608 133.398 48.7948C133.333 48.3244 132.831 48 132.377 48C127.094 48 121.618 48.8759 116.4 48.519C115.573 48.4542 114.877 49.2652 114.877 50.0437C114.877 56.986 114.488 63.9444 114.779 70.8866C114.86 72.687 117.469 72.6708 117.567 70.8866H117.55Z" fill="#575757"/>
<path d="M-56.5618 100.959C-54.9252 106.247 -51.9923 110.675 -46.2884 111.778C-44.1657 112.183 -31.3321 107.301 -32.9687 105.127C-25.4015 115.184 -11.6281 112.718 -7.51223 101.429C-8.22521 101.608 -8.92198 101.802 -9.63495 101.981C-2.00286 111.583 9.87467 112.913 17.1827 102.354H15.0438C18.56 107.625 22.9351 110.675 29.4491 110.042C32.4307 109.75 35.0557 108.015 37.3567 106.263C41.4239 103.181 42.7364 106.863 46.4795 109.296C51.1301 112.313 56.8663 112.07 61.6627 109.734C63.9637 108.598 65.6003 106.441 66.9776 104.365C66.3619 105.29 74.9662 109.896 75.9871 110.302C80.8483 112.216 86.2604 110.107 90.2466 107.317C91.786 106.247 93.1309 104.884 94.3786 103.489C95.7884 101.916 92.6772 101.997 94.6379 104.041C103.842 113.643 115.347 113.14 123.578 102.743C122.865 102.646 122.136 102.565 121.423 102.467C125.182 107.933 130.06 113.967 137.384 113.237C142.456 112.735 145.988 107.593 147.949 103.408H145.681C152.065 113.838 165.061 116.271 170.651 103.473C169.776 103.359 168.885 103.246 168.01 103.132C170.959 114.584 189.95 115.103 195.151 105.208C195.783 104.024 194.066 103.003 193.353 104.154C188.799 111.486 173.033 111.826 170.797 102.354C170.521 101.218 168.674 100.845 168.156 102.013C163.505 112.508 153.523 111.08 147.949 102.078C147.479 101.316 146.118 101.137 145.681 102.078C144.352 104.965 142.683 107.528 140.106 109.442C133.56 114.34 127.062 105.63 123.789 101.072C123.141 100.18 122.071 100.213 121.423 101.072C113.645 111.307 102.772 110.139 95.0592 100.91C94.5083 100.245 93.5846 100.586 93.1471 101.153C85.9525 110.756 75.4361 109.864 67.5934 101.251C67.1073 100.715 66.0702 100.813 65.7299 101.494C59.8965 113.367 47.7273 109.393 40.8243 100.91C40.4355 100.424 39.5118 100.44 39.1229 100.91C32.5765 108.663 23.4212 110.561 17.1665 101.137C16.6318 100.326 15.5785 100.359 15.0276 101.137C8.43253 110.626 -1.46813 108.29 -7.85252 100.213C-8.50068 99.4017 -9.68357 99.9856 -9.97524 100.764C-14.0262 111.794 -25.5797 110.561 -31.8507 102.386C-32.2882 101.802 -33.309 101.397 -33.8762 102.127C-36.4526 105.452 -39.2235 108.112 -43.3069 109.393C-49.4968 111.323 -53.0455 104.852 -55.2493 100.407C-55.622 99.6612 -56.8211 100.18 -56.578 100.975L-56.5618 100.959Z" fill="#575757"/>
<path d="M307.04 238.246C286.51 226.373 262.706 219.723 241.041 210.299C221.613 201.848 201.827 194.16 182.253 186.082C181.086 185.595 180.584 187.493 181.734 187.98C223.282 205.141 264.262 224.086 306.327 239.933C307.316 240.306 307.915 238.765 307.04 238.246Z" fill="#575757"/>
<path d="M180.73 236.494C184.894 242.058 190.468 246.275 197.712 244.702C200.158 244.166 202.297 242.512 204.145 240.906C205.02 240.144 205.814 239.219 206.527 238.311C208.39 235.878 206.705 238.311 205.733 237.127C214.823 248.011 227.397 247.865 235.986 236.738H233.911C237.671 242.058 242.483 248.238 249.71 247.524C254.75 247.021 258.25 241.879 260.194 237.727H258.088C264.569 248.286 277.144 250.59 282.864 237.776C282.07 237.678 281.26 237.565 280.466 237.467C283.22 248.919 302.568 249.746 307.478 239.576C308.061 238.36 306.424 237.403 305.679 238.522C300.964 245.545 285.392 246.243 282.993 236.77C282.734 235.748 281.065 235.375 280.595 236.462C275.993 247.118 265.72 245.415 260.194 236.51C259.757 235.797 258.493 235.635 258.088 236.51C256.743 239.414 255.074 241.96 252.481 243.907C245.87 248.838 239.226 240.241 235.969 235.553C235.58 234.986 234.608 234.661 234.09 235.31C226.198 245.415 215.293 244.75 207.434 235.261C206.883 234.613 205.846 234.888 205.441 235.521C204.177 237.516 202.443 239.154 200.547 240.549C193.693 245.578 187.017 240.355 181.864 235.651C181.281 235.116 180.211 235.845 180.714 236.527L180.73 236.494Z" fill="#575757"/>
<path d="M86.1469 216.187C74.6907 214.711 62.8131 214.256 51.2921 215.149C50.6115 215.197 49.9958 215.684 50.012 216.43C50.3522 230.006 48.7318 243.55 49.218 257.142C49.6717 269.94 50.4495 282.787 49.8661 295.584C49.8013 297.012 52.0213 297.012 52.0861 295.584C52.8963 277.547 50.8708 259.527 51.4865 241.49C51.6324 237.305 51.8754 233.137 52.0699 228.968C52.3129 223.761 50.5305 217.679 57.2876 217.711C66.9127 217.744 76.5379 218.668 86.1631 218.62C87.7673 218.62 87.6539 216.398 86.1631 216.219L86.1469 216.187Z" fill="#575757"/>
<path d="M50.644 266.615C55.3431 266.031 59.9289 266.274 64.6604 266.599C71.8226 267.085 78.9686 266.777 86.147 267.361C87.4757 267.475 87.735 265.35 86.4548 265.058C78.8714 263.371 70.8666 264.393 63.1373 263.89C60.3664 263.712 51.5838 262.057 49.9796 265.48C49.769 265.934 50.012 266.696 50.6278 266.631L50.644 266.615Z" fill="#575757"/>
<path d="M68.5818 215.651C66.3457 231.693 67.9012 249.324 68.1605 265.528C68.1929 267.085 70.5911 267.085 70.5587 265.528C70.2832 249.373 72.7949 231.498 69.4892 215.651C69.392 215.213 68.6466 215.181 68.5818 215.651Z" fill="#575757"/>
<path d="M7.26583 276.753C6.27738 282.057 6.77971 287.62 6.55285 293.021C6.30979 298.942 6.09914 304.83 6.19636 310.766C6.21257 312.323 8.62697 312.323 8.59456 310.766C8.40012 299.883 10.8793 287.344 8.17326 276.753C8.05983 276.315 7.34685 276.282 7.26583 276.753Z" fill="#575757"/>
<path d="M21.7846 276.428C20.7961 281.781 21.3471 287.393 21.2175 292.827C21.0716 298.812 20.942 304.781 21.0392 310.766C21.0554 312.323 23.4698 312.323 23.4374 310.766C23.2429 299.801 25.4305 287.101 22.692 276.428C22.5786 275.99 21.8656 275.958 21.7846 276.428Z" fill="#575757"/>
<path d="M37.5997 277.077C36.5464 281.846 37.1946 286.939 37.0164 291.805C36.8381 296.622 36.7895 301.424 36.8543 306.241C36.8867 307.798 39.2849 307.798 39.2525 306.241C39.0743 297.093 41.116 285.885 38.5071 277.077C38.3775 276.639 37.6969 276.607 37.5997 277.077Z" fill="#575757"/>
<path d="M50.6439 242.512C62.5701 241.425 74.5935 243.015 86.471 241.863C87.6053 241.75 87.6215 240.16 86.471 240.095C74.5772 239.349 62.2136 239.025 50.4171 240.776C49.4286 240.922 49.6555 242.609 50.6601 242.512H50.6439Z" fill="#575757"/>
<path d="M60.5446 271.627C64.628 271.384 72.4708 271.27 78.2718 271.595C78.3042 273.379 78.7255 275.228 78.4014 276.509C72.5842 276.509 66.4591 276.672 60.6418 276.428C60.3177 275.131 60.5446 272.908 60.5446 271.627Z" fill="#575757"/>
<path d="M119.398 122.402C117.615 140.276 118.117 158.751 118.701 176.674C118.717 177.356 119.284 178.053 120.03 178.004C131.47 177.242 143.072 177.696 154.56 177.275C155.241 177.242 155.792 176.723 155.792 176.026C155.857 158.005 157.007 140.098 155.549 122.077C155.5 121.558 155.127 121.039 154.544 121.072C143.072 121.737 131.502 120.877 120.013 121.445C118.798 121.51 118.782 123.407 120.013 123.343C129.898 122.856 139.847 123.034 149.748 123.018C152.454 123.018 153.556 122.029 153.458 125.046C153.296 130.041 153.766 135.135 153.912 140.13C154.171 149.197 154.204 158.248 153.669 167.299C153.507 170.057 153.377 172.814 153.329 175.588C154.56 174.842 154.544 174.598 153.313 174.825C151.676 174.874 150.056 174.939 148.419 175.004C141.646 175.279 135.002 175.361 128.213 175.15C123.351 175.004 121.31 175.993 121.18 170.267C121.05 164.947 121.067 159.627 121.099 154.307C121.148 143.715 121.666 132.945 120.662 122.386C120.58 121.575 119.479 121.575 119.398 122.386V122.402Z" fill="#575757"/>
<path d="M118.944 142.223C123.935 143.731 130.011 142.515 135.213 142.58C141.662 142.661 148.111 143.083 154.56 143.212C156.408 143.245 156.391 140.439 154.56 140.358C148.111 140.082 141.662 139.855 135.213 139.741C130.011 139.644 123.513 138.784 118.83 141.396C118.49 141.59 118.571 142.093 118.944 142.207V142.223Z" fill="#575757"/>
<path d="M120.354 161.865C131.648 162.595 143.282 161.995 154.56 161.411C156.116 161.33 156.116 159.076 154.56 159.011C143.266 158.508 131.615 159.059 120.354 159.838C119.057 159.935 119.041 161.784 120.354 161.865Z" fill="#575757"/>
<path d="M137.287 122.402C137.028 140.341 137.141 158.411 137.643 176.35C137.676 177.794 139.782 177.777 139.863 176.35C140.884 158.443 139.896 140.309 139.572 122.402C139.539 120.926 137.319 120.926 137.287 122.402Z" fill="#575757"/>
<path d="M108.314 178.442C107.423 182.562 108.622 186.342 108.768 190.494C108.784 191.159 109.303 191.727 109.999 191.727C128.164 191.792 146.394 190.818 164.542 191.305C165.077 191.305 165.595 190.835 165.563 190.283C165.385 186.196 165.19 182.108 165.109 178.021C165.109 177.372 164.591 176.885 163.959 176.869C154.171 176.545 144.384 177.129 134.597 177.258C125.912 177.372 117.08 175.604 108.573 177.891C108.298 177.972 108.022 178.264 108.055 178.572C108.476 182.238 109.627 186.05 108.881 189.748C108.752 190.348 109.659 190.607 109.789 190.007C110.21 188.045 110.599 187.153 110.21 185.157C108.8 177.729 114.958 178.961 120.078 179.043C129.849 179.205 139.491 179.497 149.278 179.221C153.199 179.107 157.104 179.075 161.026 179.124C164.088 179.156 163.067 183.519 163.229 186.147C163.294 187.12 163.359 188.11 163.424 189.099C163.537 190.948 164.153 189.277 164.218 189.277C163.148 189.277 162.095 189.213 161.026 189.148C150.963 188.661 140.852 188.661 130.773 188.612C125.782 188.596 120.807 188.612 115.833 188.839C114.099 188.921 112.316 188.937 110.599 189.18C110.793 189.148 109.205 179.14 109.222 178.572C109.238 178.037 108.395 177.923 108.282 178.442H108.314Z" fill="#575757"/>
<path d="M116.594 190.608C115.476 192.862 116.092 197.079 118.993 197.647C120.581 197.955 121.78 196.998 122.331 195.587C122.606 194.89 122.655 194.095 122.719 193.365C122.784 192.651 122.962 191.759 122.752 191.062C122.59 190.51 121.909 190.462 121.601 190.916C120.678 192.246 121.958 196.074 119.462 196.074C117.405 196.074 117.048 192.181 117.064 190.754C117.064 190.51 116.708 190.397 116.594 190.624V190.608Z" fill="#575757"/>
<path d="M151.093 190.672C150.704 192.943 151.157 196.609 154.317 196.22C155.5 196.074 156.375 195.328 157.04 194.387C157.785 193.332 158.498 191.078 157.769 189.894C157.477 189.423 156.796 189.423 156.505 189.894C155.986 190.753 156.181 191.938 155.759 192.895C155.468 193.592 154.949 194.225 154.22 194.452C152.486 194.954 151.725 191.743 151.563 190.672C151.53 190.429 151.109 190.429 151.076 190.672H151.093Z" fill="#575757"/>
<path d="M2.24257 135.491C0.460126 153.366 0.96245 171.841 1.54579 189.764C1.562 190.445 2.12914 191.143 2.87452 191.094C14.3146 190.332 25.9166 190.786 37.4053 190.364C38.0858 190.332 38.6368 189.813 38.6368 189.115C38.7016 171.095 39.8521 153.188 38.3937 135.167C38.3451 134.648 37.9724 134.129 37.3891 134.161C25.9166 134.826 14.347 133.967 2.85832 134.534C1.64302 134.599 1.62682 136.497 2.85832 136.432C12.7428 135.946 22.692 136.124 32.5927 136.108C35.2988 136.108 36.4006 135.118 36.3034 138.135C36.1414 143.131 36.6113 148.224 36.7571 153.22C37.0164 162.287 37.0488 171.338 36.5141 180.389C36.352 183.146 36.2224 185.904 36.1738 188.677C37.4053 187.931 37.3891 187.688 36.1576 187.915C34.521 187.964 32.9006 188.028 31.264 188.093C24.4907 188.369 17.847 188.45 11.0575 188.239C6.19634 188.093 4.15464 189.083 4.02501 183.357C3.89537 178.037 3.91158 172.717 3.94399 167.396C3.9926 156.805 4.51113 146.035 3.50648 135.475C3.42546 134.664 2.32359 134.664 2.24257 135.475V135.491Z" fill="#575757"/>
<path d="M1.78885 155.312C6.77969 156.821 12.8562 155.604 18.0577 155.669C24.5069 155.75 30.9561 156.172 37.4053 156.302C39.2525 156.334 39.2363 153.528 37.4053 153.447C30.9561 153.171 24.5069 152.944 18.0577 152.831C12.8562 152.733 6.35838 151.874 1.67542 154.485C1.33514 154.68 1.41616 155.183 1.78885 155.296V155.312Z" fill="#575757"/>
<path d="M3.1986 174.955C14.4766 175.685 26.1111 175.085 37.4053 174.501C38.9609 174.42 38.9609 172.165 37.4053 172.1C26.1111 171.597 14.4604 172.149 3.1986 172.944C1.90228 173.041 1.88608 174.89 3.1986 174.971V174.955Z" fill="#575757"/>
<path d="M20.1318 135.491C19.8725 153.431 20.0021 171.5 20.4883 189.44C20.5207 190.883 22.6272 190.867 22.7082 189.44C23.7291 171.533 22.7406 153.398 22.4165 135.491C22.3841 134.015 20.1642 134.015 20.1318 135.491Z" fill="#575757"/>
<path d="M-8.84101 191.532C-9.73223 195.652 -8.53314 199.431 -8.3873 203.584C-8.3711 204.249 -7.85256 204.816 -7.15579 204.816C11.0089 204.881 29.2384 203.908 47.4031 204.395C47.9379 204.395 48.4564 203.924 48.424 203.373C48.2457 199.285 48.0513 195.198 47.9703 191.11C47.9703 190.461 47.4517 189.975 46.8198 189.959C37.0326 189.634 27.2453 190.218 17.4581 190.348C8.77276 190.461 -0.0584297 188.693 -8.56554 190.98C-8.84101 191.062 -9.11648 191.354 -9.08407 191.662C-8.66277 195.327 -7.51228 199.139 -8.25766 202.837C-8.3873 203.438 -7.47987 203.697 -7.35024 203.097C-6.92893 201.134 -6.54004 200.242 -6.92894 198.247C-8.33868 190.818 -2.18116 192.051 2.93931 192.132C12.7103 192.294 22.3517 192.586 32.1389 192.311C36.0603 192.197 39.9655 192.165 43.8869 192.213C46.9494 192.246 45.9286 196.609 46.0906 199.237C46.1554 200.226 46.2202 201.199 46.285 202.189C46.3985 204.038 47.0142 202.367 47.0791 202.367C46.0096 202.367 44.9563 202.302 43.8869 202.237C33.8242 201.751 23.7129 201.751 13.634 201.702C8.64313 201.686 3.66849 201.702 -1.30614 201.929C-3.03997 202.01 -4.82241 202.026 -6.54004 202.27C-6.34559 202.237 -7.93359 192.229 -7.91738 191.662C-7.90118 191.126 -8.74378 191.013 -8.85721 191.532H-8.84101Z" fill="#575757"/>
<path d="M-0.560777 203.697C-1.67885 205.952 -1.0631 210.169 1.83742 210.737C3.42541 211.045 4.62451 210.088 5.17545 208.677C5.45091 207.979 5.49952 207.184 5.56434 206.455C5.62916 205.741 5.8074 204.849 5.59675 204.151C5.43471 203.6 4.75414 203.551 4.44626 204.005C3.52264 205.335 4.80275 209.163 2.30733 209.163C0.233221 209.163 -0.123267 205.27 -0.0908588 203.843C-0.0908588 203.6 -0.447349 203.486 -0.560777 203.713V203.697Z" fill="#575757"/>
<path d="M33.9376 203.762C33.5487 206.033 33.9538 209.585 37.0812 209.309C38.2965 209.196 39.2363 208.385 39.9007 207.411C40.6299 206.357 41.3266 204.119 40.6136 202.967C40.322 202.497 39.6414 202.497 39.3497 202.967C38.8474 203.811 39.0257 204.995 38.6368 205.935C38.3451 206.617 37.859 207.282 37.146 207.509C35.3635 208.093 34.5857 204.849 34.4237 203.746C34.3913 203.502 33.97 203.502 33.9376 203.746V203.762Z" fill="#575757"/>
<path d="M108.314 276.493C107.423 280.613 108.622 284.392 108.768 288.545C108.784 289.21 109.303 289.777 109.999 289.777C128.164 289.842 146.394 288.869 164.542 289.356C165.077 289.356 165.595 288.885 165.563 288.334C165.385 284.246 165.19 280.159 165.109 276.071C165.109 275.423 164.591 274.936 163.959 274.92C154.171 274.595 144.384 275.179 134.597 275.309C125.912 275.422 117.08 273.655 108.573 275.942C108.298 276.023 108.022 276.315 108.055 276.623C108.476 280.289 109.627 284.1 108.881 287.798C108.752 288.399 109.659 288.658 109.789 288.058C110.21 286.095 110.599 285.203 110.21 283.208C108.8 275.779 114.958 277.012 120.078 277.093C129.849 277.255 139.491 277.564 149.278 277.272C153.199 277.158 157.104 277.126 161.026 277.174C164.088 277.207 163.067 281.57 163.229 284.198C163.294 285.187 163.359 286.16 163.424 287.15C163.537 288.999 164.153 287.328 164.218 287.328C163.148 287.328 162.095 287.263 161.026 287.198C150.963 286.712 140.852 286.712 130.773 286.663C125.782 286.647 120.807 286.663 115.833 286.89C114.099 286.971 112.316 286.987 110.599 287.231C110.793 287.198 109.205 277.19 109.222 276.623C109.238 276.088 108.395 275.974 108.282 276.493H108.314Z" fill="#575757"/>
<path d="M116.594 288.658C115.476 290.913 116.092 295.13 118.993 295.698C120.581 296.006 121.78 295.049 122.331 293.638C122.606 292.94 122.655 292.146 122.719 291.416C122.784 290.702 122.962 289.81 122.752 289.112C122.59 288.561 121.909 288.512 121.601 288.966C120.678 290.296 121.958 294.124 119.462 294.124C117.405 294.124 117.048 290.232 117.064 288.804C117.064 288.561 116.708 288.447 116.594 288.674V288.658Z" fill="#575757"/>
<path d="M151.093 288.723C150.704 290.994 151.157 294.66 154.317 294.27C155.5 294.124 156.375 293.378 157.04 292.437C157.785 291.383 158.498 289.129 157.769 287.944C157.477 287.474 156.796 287.458 156.505 287.944C155.986 288.804 156.181 289.988 155.759 290.945C155.468 291.643 154.949 292.275 154.22 292.502C152.486 293.005 151.725 289.794 151.563 288.723C151.53 288.48 151.109 288.48 151.076 288.723H151.093Z" fill="#575757"/>
<path d="M-39.7258 276.655C-25.0612 277.434 -10.3965 277.823 4.28429 278.148C19.7591 278.488 35.4932 279.526 50.9681 278.521C52.7019 278.407 52.7343 275.747 50.9681 275.796C20.7638 276.704 -9.53773 273.655 -39.7258 275.066C-40.7467 275.114 -40.7467 276.59 -39.7258 276.655Z" fill="#575757"/>
<path d="M-16.4893 329.452C-31.1053 329.176 -45.8023 329.419 -60.3859 328.446C-61.1313 328.397 -61.7633 329.111 -61.7633 329.825L-61.8443 359.556C-61.8443 360.335 -61.1799 361.032 -60.3859 361.016C21.7684 359.07 104.052 359.216 186.223 358.291C243.65 357.642 301.093 357.01 358.52 356.393C359.59 356.393 360.562 355.485 360.53 354.382C360.238 344.91 359.979 335.405 359.249 325.948C359.168 324.862 358.391 323.905 357.224 323.921C321.381 324.261 285.521 324.926 249.694 325.786C210.756 326.711 171.542 328.933 132.588 327.619C131.405 327.586 131.405 329.419 132.588 329.452C171.542 330.782 210.707 329.938 249.694 329.679C285.537 329.436 321.381 328.365 357.224 327.976C356.543 327.295 355.879 326.629 355.198 325.948C355.944 335.405 356.203 344.91 356.511 354.382L358.52 352.371C282.232 353.295 205.943 354.236 129.655 355.193C81.1885 355.81 32.6899 355.923 -15.7763 357.107C-28.9177 357.432 -42.0592 357.707 -55.2169 357.967C-56.6428 357.999 -58.0688 358.032 -59.4947 358.064C-59.7378 358.064 -59.9646 358.064 -60.2077 358.08C-57.9391 358.015 -58.9762 352.809 -58.9762 351.673C-58.9924 345.234 -59.0086 338.795 -59.0248 332.355C-59.0248 330.409 -54.196 331.463 -51.9761 331.528C-48.1519 331.625 -44.344 331.658 -40.5198 331.69C-33.1146 331.755 -25.7093 331.658 -18.3041 331.528C-17.7046 331.528 -17.1212 331.512 -16.5217 331.496C-15.2091 331.463 -15.2091 329.5 -16.5217 329.468L-16.4893 329.452Z" fill="#575757"/>
<path d="M116.4 57.5212C122.104 57.7807 127.872 58.5755 133.592 58.4782C134.775 58.462 134.775 56.5967 133.592 56.6453C127.986 56.8237 121.747 55.1368 116.286 56.6453C115.8 56.7751 115.914 57.4888 116.4 57.5212Z" fill="#575757"/>
<path d="M116.4 65.9881C119.43 66.3936 122.638 66.1665 125.701 66.3449C128.52 66.5071 131.275 66.572 134.062 66.199C135.229 66.0367 134.743 64.2525 133.576 64.431C128.164 65.242 121.245 62.9549 116.303 65.6312C116.124 65.7286 116.222 65.9556 116.4 65.9881Z" fill="#575757"/>
<path d="M121.472 74.0658C125.393 75.4931 130.222 74.7795 134.24 73.9198C134.97 73.7576 134.759 72.7195 134.078 72.6708C129.882 72.4113 125.733 74.0658 121.488 74.0009C121.455 74.0009 121.439 74.0495 121.488 74.0658H121.472Z" fill="#575757"/>
<path d="M190.938 242.431C189.593 257.499 189.172 272.844 189.075 287.977C189.075 288.642 189.593 289.064 190.225 289.129C221.483 291.983 252.854 290.199 284.144 288.739C284.841 288.707 285.359 288.204 285.391 287.49C285.894 272.633 286.38 257.775 286.866 242.901C286.915 241.263 284.387 241.279 284.338 242.901C284.095 250.265 283.852 257.645 283.609 265.009C283.463 269.275 283.334 273.557 283.204 277.823C283.058 282.705 283.998 286.241 278.132 286.517C262.9 287.263 247.669 287.993 232.421 288.236C225.323 288.35 218.242 288.269 211.145 288.09C206.316 287.961 191.343 289.729 191.392 283.468C191.489 269.81 192.559 256.056 191.441 242.415C191.408 242.09 190.971 242.09 190.938 242.415V242.431Z" fill="#575757"/>
<path d="M292.197 245.334C291.29 259.365 291.744 273.509 291.792 287.555C291.841 300.742 291.436 314.075 292.294 327.23C292.375 328.56 294.401 328.592 294.385 327.23C294.012 300.012 295.276 272.503 293.526 245.334C293.477 244.475 292.246 244.475 292.197 245.334Z" fill="#575757"/>
<path d="M292.375 307.538C296.329 307.457 300.332 307.895 304.253 307.344C303.832 307.019 303.41 306.695 302.989 306.387C302.989 308.722 302.989 311.074 302.519 313.378C302.39 314.026 302.811 314.659 303.508 314.675C306.732 314.675 309.957 314.74 313.198 314.675C312.857 314.335 312.517 313.994 312.177 313.653C312.242 316.897 312.144 320.109 311.982 323.353C311.934 324.18 313.23 324.342 313.408 323.548C314.154 320.32 314.137 316.962 314.202 313.67C314.202 313.102 313.732 312.664 313.181 312.648C309.957 312.583 306.732 312.648 303.491 312.648C303.816 313.086 304.14 313.507 304.48 313.945C304.966 311.447 304.982 308.933 304.982 306.403C304.982 305.689 304.35 305.349 303.718 305.446C299.975 305.981 296.135 305.787 292.359 306.225C291.533 306.322 291.484 307.571 292.359 307.555L292.375 307.538Z" fill="#575757"/>
<path d="M215.957 242.431C215.585 257.726 215.471 273.168 216.055 288.464C216.103 289.81 218.096 289.81 218.145 288.464C218.696 273.184 218.145 257.645 216.784 242.431C216.735 241.912 215.974 241.896 215.957 242.431Z" fill="#575757"/>
<path d="M239.68 242.674C239.307 257.97 239.194 273.411 239.777 288.707C239.826 290.053 241.819 290.053 241.868 288.707C242.418 273.427 241.868 257.889 240.506 242.674C240.458 242.155 239.696 242.139 239.68 242.674Z" fill="#575757"/>
<path d="M264.132 242.674C263.759 257.97 263.646 273.411 264.229 288.707C264.278 290.053 266.271 290.053 266.319 288.707C266.87 273.427 266.319 257.889 264.958 242.674C264.91 242.155 264.148 242.139 264.132 242.674Z" fill="#575757"/>
<path d="M190.711 272.519C222.018 272.876 253.583 273.59 284.873 272.422C286.218 272.373 286.218 270.378 284.873 270.329C253.615 269.194 221.937 270.297 190.711 271.692C190.177 271.708 190.177 272.503 190.711 272.519Z" fill="#575757"/>
<path d="M190.711 254.109C222.018 254.466 253.583 255.18 284.873 254.012C286.218 253.963 286.218 251.968 284.873 251.92C253.615 250.784 221.937 251.887 190.711 253.282C190.177 253.298 190.177 254.093 190.711 254.109Z" fill="#575757"/>
<path d="M181.248 148.062C185.121 141.996 190.825 131.339 199.721 138.476C203.14 141.217 204.258 146.7 205.554 150.673C205.846 151.566 207.207 151.922 207.693 150.949C211.08 144.039 216.508 134.113 225.809 135.589C234.867 137.032 231.043 148.873 228.159 153.771C227.705 154.534 228.645 155.604 229.439 155.053C240.053 147.608 243.942 159.984 237.995 167.656C237.476 168.321 237.914 169.505 238.886 169.197C254.053 164.25 258.914 186.779 246.875 186.358C245.449 186.309 245.189 188.126 246.194 188.839C257.116 196.479 243.52 206.454 235.872 207.752C234.219 208.028 234.932 210.542 236.569 210.25C247.588 208.32 259.627 195.149 247.555 186.52C247.328 187.347 247.101 188.174 246.891 189.002C262.884 189.715 256.678 161.46 238.416 167.396C238.708 167.915 239.016 168.418 239.307 168.937C246.777 159.319 240.992 144.672 228.499 153.431C228.921 153.853 229.358 154.291 229.779 154.712C233.522 148.37 235.937 138.703 228.191 134.405C218.388 128.971 209.152 142.661 205.7 149.765C206.413 149.862 207.126 149.944 207.839 150.041C205.959 144.396 203.464 134.972 196.172 134.242C188.151 133.431 181.167 139.887 180.811 147.932C180.811 148.192 181.151 148.257 181.281 148.062H181.248Z" fill="#575757"/>
<path d="M254.555 173.252C256.338 167.25 259.692 162.482 265.768 160.454C274.519 157.535 277.5 165.726 276.123 172.798C275.912 173.901 276.982 174.809 278.019 174.258C281.81 172.23 285.699 170.495 289.864 169.375C298.176 167.137 299.392 173.203 297.399 180.064C297.107 181.038 298.063 181.978 299.035 181.703C302.552 180.713 319.323 177.972 312.987 189.537C311.658 191.954 308.952 194.16 306.7 195.701C305.792 196.317 305.841 197.452 306.7 198.085C308.288 199.253 309.681 200.615 311.01 202.059C317.038 208.547 305.144 210.201 301.093 210.591C300.137 210.688 299.376 211.661 299.943 212.602C305.355 221.377 295.827 226.486 288.649 228.157C287.061 228.53 287.741 230.963 289.329 230.606C298.695 228.465 308.434 221.426 302.244 211.272C301.855 211.937 301.482 212.618 301.093 213.283C306.149 212.829 314.85 213.186 315.887 206.552C316.568 202.221 311.059 197.939 308.077 195.733V198.117C311.723 195.587 317.767 190.607 316.925 185.482C315.466 176.48 304.95 177.291 298.306 179.156C298.857 179.708 299.392 180.243 299.943 180.794C301.482 175.458 302.778 168.272 296.021 166.439C289.864 164.753 281.891 169.262 276.706 172.068C277.338 172.554 277.97 173.041 278.602 173.528C280.06 165.904 278.165 157.681 269.058 157.583C260.761 157.486 254.28 165.515 253.68 173.187C253.648 173.706 254.409 173.771 254.555 173.301V173.252Z" fill="#575757"/>
<path d="M335.349 242.431C330.876 237.192 324.2 237.792 320.878 243.955C319.323 246.826 320.376 250.103 321.689 252.779C322.774 254.969 324.573 254.742 321.802 254.969C320.198 255.099 318.35 255.585 316.941 256.38C313.117 258.505 308.758 263.825 311.642 268.448C315.337 274.352 322.823 271.724 327.862 269.226C327.473 268.707 327.068 268.205 326.679 267.686C320.959 273.93 318.221 282.592 328.154 285.901C336.337 288.626 346.432 284.117 348.166 275.423C347.566 275.504 346.967 275.585 346.367 275.65C350.888 283.273 363.641 278.407 367.692 272.649C374.416 263.095 355.814 256.169 349.333 257.078C349.624 257.775 349.916 258.472 350.224 259.17C355.312 255.488 359.33 249.714 355.279 243.712C351.893 238.684 345.8 241.409 342.624 244.864C343.159 245.269 343.694 245.691 344.228 246.097C350.127 235.57 333.485 231.093 334.619 243.161C334.684 243.793 335.64 243.826 335.624 243.161C335.511 234.126 347.064 237.289 342.462 245.075C341.879 246.064 343.256 247.151 344.066 246.307C346.983 243.274 351.099 241.571 353.999 245.918C356.932 250.298 352.071 254.969 349.057 257.191C347.988 257.986 348.636 259.494 349.948 259.283C355.782 258.408 369.701 263.03 365.958 271.611C363.722 276.72 351.39 280.207 348.069 274.628C347.664 273.93 346.448 273.995 346.27 274.855C344.86 281.894 338.395 284.733 331.751 284.506C321.202 284.149 322.483 275.114 328.057 269.032C328.835 268.188 327.862 267.004 326.874 267.491C322.742 269.535 313.441 272.827 312.841 265.188C312.323 258.683 320.7 256.64 325.432 256.656C326.226 256.656 326.647 255.65 326.08 255.099C322.499 251.546 320.101 247.248 323.779 242.512C326.809 238.619 331.897 240.063 334.879 242.901C335.203 243.209 335.656 242.739 335.365 242.415L335.349 242.431Z" fill="#575757"/>
<path d="M326.29 324.813C326.566 320.725 326.339 316.735 325.999 312.664C325.902 311.545 335.964 312.08 337.147 312.064C341.36 312.031 345.589 311.918 349.802 311.869C352.006 311.853 352.136 323.467 352.363 325.316C352.525 326.581 354.485 326.646 354.388 325.316C354.048 320.466 353.497 315.616 353.011 310.782C352.946 310.198 352.557 309.696 351.925 309.696C342.883 309.728 333.858 310.036 324.816 309.777C324.314 309.777 323.746 310.247 323.811 310.782C324.411 315.454 324.832 320.141 325.286 324.829C325.351 325.478 326.258 325.494 326.29 324.829V324.813Z" fill="#575757"/>
<path d="M335.964 311.237C336.418 307.392 336.061 303.451 335.964 299.591C335.867 294.968 336.386 289.55 335.186 285.09C334.976 284.279 333.744 284.262 333.534 285.09C332.383 289.55 333.291 295.049 333.663 299.591C333.971 303.516 334.117 307.522 334.96 311.366C335.089 311.966 335.899 311.756 335.948 311.237H335.964Z" fill="#575757"/>
<path d="M339.918 283.5C339.513 287.409 339.756 291.367 339.788 295.276C339.821 300.093 339.059 306.111 340.453 310.734C340.696 311.545 341.863 311.561 342.106 310.734C343.418 306.111 342.381 300.045 342.073 295.276C341.814 291.302 341.782 287.247 340.923 283.354C340.793 282.754 339.983 282.965 339.934 283.484L339.918 283.5Z" fill="#575757"/>
</g>
<defs>
<clipPath id="clip0_157_2325">
<rect width="387" height="357" fill="white" transform="translate(389)"/>
</clipPath>
<clipPath id="clip1_157_2325">
<rect width="481" height="313" fill="white" transform="translate(-92 48)"/>
</clipPath>
</defs>
</svg>
