<svg width="67" height="71" viewBox="0 0 67 71" fill="none" xmlns="http://www.w3.org/2000/svg">
<path d="M50.3939 53.0662C49.2092 53.0662 48.2455 52.232 48.2455 51.2067C48.2455 50.1813 49.2092 49.3471 50.3939 49.3471C51.5786 49.3471 52.5423 50.1813 52.5423 51.2067C52.5423 51.746 52.9796 52.1833 53.5189 52.1833C54.0582 52.1833 54.4955 51.746 54.4955 51.2067C54.4955 49.4171 53.1621 47.9125 51.3705 47.5041V46.9962C51.3705 46.4569 50.9332 46.0196 50.3939 46.0196C49.8546 46.0196 49.4173 46.4569 49.4173 46.9962V47.5041C47.6257 47.9125 46.2924 49.4171 46.2924 51.2067C46.2924 53.3089 48.1323 55.0193 50.3939 55.0193C51.5786 55.0193 52.5423 55.8535 52.5423 56.8789C52.5423 57.9042 51.5786 58.7384 50.3939 58.7384C49.2092 58.7384 48.2455 57.9042 48.2455 56.8789C48.2455 56.3396 47.8082 55.9023 47.2689 55.9023C46.7297 55.9023 46.2924 56.3396 46.2924 56.8789C46.2924 58.6684 47.6257 60.1731 49.4173 60.5815V61.0034C49.4173 61.5426 49.8546 61.9799 50.3939 61.9799C50.9332 61.9799 51.3705 61.5426 51.3705 61.0034V60.5815C53.1621 60.1731 54.4955 58.6684 54.4955 56.8789C54.4955 54.7765 52.6555 53.0662 50.3939 53.0662Z" fill="#A7CA37"/>
<path d="M61.09 47.2574C59.8143 45.2696 58.017 43.679 55.8925 42.6577C55.4063 42.4239 54.8228 42.6286 54.5892 43.1147C54.3555 43.6009 54.5601 44.1842 55.0462 44.4179C58.7485 46.1976 61.1406 50.0003 61.1406 54.1055C61.1406 55.8622 60.7076 57.6042 59.8885 59.1437C59.6352 59.6198 59.8158 60.2112 60.2919 60.4645C60.438 60.5422 60.5951 60.5791 60.7497 60.5791C61.0992 60.5791 61.4371 60.3911 61.6127 60.0611C62.5816 58.2404 63.0937 56.1809 63.0937 54.1055C63.0937 51.668 62.4008 49.3 61.09 47.2574Z" fill="#A7CA37"/>
<path d="M45.7507 63.7931C42.0485 62.0133 39.6564 58.2107 39.6564 54.1055C39.6564 52.3489 40.0894 50.6068 40.9085 49.0673C41.1618 48.5913 40.9812 47.9999 40.5051 47.7466C40.0291 47.4932 39.4375 47.6738 39.1843 48.15C38.2154 49.9708 37.7033 52.0301 37.7033 54.1055C37.7033 56.543 38.3962 58.911 39.707 60.9537C40.9827 62.9414 42.78 64.5321 44.9045 65.5534C45.0409 65.6191 45.185 65.65 45.3269 65.65C45.6906 65.65 46.0396 65.446 46.2078 65.0964C46.4413 64.6103 46.2368 64.0268 45.7507 63.7931Z" fill="#A7CA37"/>
<path d="M54.8329 38.1062C54.714 37.823 54.5684 37.5561 54.399 37.3086H56.9414C59.4183 37.3086 61.4335 35.2933 61.4335 32.8164C61.4335 30.3394 59.4183 28.3242 56.9414 28.3242H49.1211C49.6182 27.6014 49.9101 26.7269 49.9101 25.7852C49.9101 23.3082 47.8949 21.293 45.4179 21.293H21.4922C19.0153 21.293 17 23.3082 17 25.7852C17 28.2621 19.0153 30.2773 21.4922 30.2773H29.3125C28.8153 31.0002 28.5234 31.8747 28.5234 32.8164C28.5234 33.7581 28.8152 34.6326 29.3125 35.3555H26.7656C24.2887 35.3555 22.2735 37.3707 22.2735 39.8476C22.2735 41.2702 22.9389 42.5396 23.9741 43.3633C22.9389 44.1869 22.2735 45.4563 22.2735 46.8789C22.2735 48.3014 22.9389 49.5709 23.9741 50.3945C22.9389 51.2181 22.2735 52.4876 22.2735 53.9101C22.2735 55.3327 22.9389 56.6021 23.9741 57.4257C22.9389 58.2494 22.2735 59.5188 22.2735 60.9413C22.2735 63.4183 24.2887 65.4335 26.7656 65.4335H38.2744C41.3062 68.6764 45.6193 70.707 50.3985 70.707C59.5526 70.707 67 63.2596 67 54.1055C67 46.4867 61.8409 40.0511 54.8329 38.1062ZM56.9414 30.2773C58.3414 30.2773 59.4804 31.4164 59.4804 32.8164C59.4804 34.2164 58.3414 35.3555 56.9414 35.3555H33.0156C31.6155 35.3555 30.4766 34.2164 30.4766 32.8164C30.4766 31.4164 31.6155 30.2773 33.0156 30.2773H56.9414ZM21.4922 28.3242C20.0921 28.3242 18.9531 27.1852 18.9531 25.7852C18.9531 24.3852 20.0921 23.2461 21.4922 23.2461H45.4179C46.818 23.2461 47.957 24.3852 47.957 25.7852C47.957 27.1852 46.818 28.3242 45.4179 28.3242H21.4922ZM26.7656 37.3086H50.6914C51.0847 37.3086 51.4614 37.4 51.7993 37.5637C51.3374 37.5249 50.8704 37.504 50.3985 37.504C45.814 37.504 41.6578 39.3721 38.6506 42.3867H26.7656C25.3656 42.3867 24.2266 41.2476 24.2266 39.8476C24.2266 38.4476 25.3656 37.3086 26.7656 37.3086ZM26.7656 44.3398H36.9819C35.8733 45.8587 35.0162 47.5717 34.4719 49.4179H26.7656C25.3655 49.4179 24.2266 48.279 24.2266 46.8789C24.2266 45.4789 25.3655 44.3398 26.7656 44.3398ZM26.7656 51.3711H34.0234C33.8753 52.261 33.797 53.1742 33.797 54.1055C33.797 54.901 33.8545 55.6833 33.9632 56.4492H26.7656C25.3655 56.4492 24.2266 55.3102 24.2266 53.9101C24.2266 52.51 25.3655 51.3711 26.7656 51.3711ZM26.7656 63.4804C25.3655 63.4804 24.2266 62.3414 24.2266 60.9413C24.2266 59.5413 25.3655 58.4023 26.7656 58.4023H34.3619C34.8547 60.2395 35.6552 61.9517 36.705 63.4804H26.7656ZM50.3985 68.7539C42.3214 68.7539 35.7501 62.1827 35.7501 54.1055C35.7501 46.0284 42.3214 39.4571 50.3985 39.4571C58.4756 39.4571 65.0469 46.0284 65.0469 54.1055C65.0469 62.1827 58.4756 68.7539 50.3985 68.7539Z" fill="black"/>
<path d="M8.02907 19.9549C6.67886 20.2317 5.35482 19.3582 5.078 18.008C4.98545 17.5565 4.54574 17.2665 4.09431 17.359C3.64288 17.4516 3.35279 17.8913 3.44535 18.3427C3.72216 19.6929 2.84865 21.017 1.49844 21.2938C1.04702 21.3863 0.756927 21.826 0.849478 22.2775C0.942029 22.7289 1.38174 23.019 1.83317 22.9264C3.18337 22.6496 4.50742 23.5231 4.78423 24.8733C4.87679 25.3248 5.31649 25.6148 5.76792 25.5223C6.21935 25.4297 6.50944 24.99 6.41689 24.5386C6.14008 23.1884 7.01358 21.8643 8.36379 21.5875C8.81522 21.495 9.10531 21.0553 9.01276 20.6038C8.92021 20.1524 8.4805 19.8623 8.02907 19.9549ZM5.09898 22.2594C4.80273 21.9969 4.47024 21.7776 4.11234 21.6085C4.37485 21.3123 4.5942 20.9798 4.76325 20.6219C5.05951 20.8844 5.39199 21.1037 5.7499 21.2728C5.48739 21.569 5.26804 21.9015 5.09898 22.2594Z" fill="#A7CA37"/>
<path d="M21.7398 5.23433C18.5896 5.88017 15.4999 3.84177 14.854 0.69156C14.7615 0.240131 14.3218 -0.0499573 13.8703 0.0425934C13.4189 0.135144 13.1288 0.574853 13.2214 1.02628C13.8672 4.17649 11.8288 7.26626 8.67859 7.91211C8.22716 8.00466 7.93707 8.44437 8.02962 8.8958C8.12217 9.34723 8.56188 9.63731 9.01331 9.54476C12.1635 8.89892 15.2533 10.9373 15.8991 14.0875C15.9917 14.539 16.4314 14.829 16.8828 14.7365C17.3343 14.6439 17.6243 14.2042 17.5318 13.7528C16.8859 10.6026 18.9243 7.51283 22.0746 6.86698C22.526 6.77443 22.8161 6.33472 22.7235 5.88329C22.631 5.43187 22.1913 5.14178 21.7398 5.23433ZM16.0258 10.5561C15.0475 9.34457 13.7087 8.46133 12.21 8.03874C13.4215 7.06051 14.3048 5.72171 14.7274 4.22301C15.7056 5.43452 17.0444 6.31776 18.5431 6.74035C17.3316 7.71858 16.4484 9.05738 16.0258 10.5561Z" fill="#A7CA37"/>
<path d="M31.3246 12.5927C30.1904 12.8252 29.0782 12.0914 28.8456 10.9572C28.7679 10.578 28.3985 10.3343 28.0193 10.4121C27.6401 10.4898 27.3964 10.8592 27.4742 11.2384C27.7067 12.3726 26.9729 13.4848 25.8387 13.7174C25.4595 13.7951 25.2158 14.1645 25.2936 14.5437C25.3713 14.9229 25.7407 15.1666 26.1199 15.0888C27.2541 14.8563 28.3663 15.5901 28.5989 16.7243C28.6766 17.1035 29.046 17.3472 29.4252 17.2694C29.8044 17.1917 30.0481 16.8223 29.9703 16.4431C29.7378 15.3089 30.4716 14.1967 31.6058 13.9641C31.985 13.8864 32.2287 13.517 32.1509 13.1378C32.0732 12.7586 31.7038 12.5149 31.3246 12.5927ZM28.8633 14.5285C28.6144 14.308 28.3351 14.1238 28.0345 13.9818C28.255 13.7329 28.4392 13.4536 28.5812 13.153C28.8301 13.3735 29.1094 13.5577 29.41 13.6997C29.1895 13.9486 29.0053 14.2279 28.8633 14.5285Z" fill="#A7CA37"/>
</svg>
