<svg width="16" height="16" viewBox="0 0 16 16" fill="none" xmlns="http://www.w3.org/2000/svg">
<path d="M9.46332 8L15.6966 1.76673C15.7931 1.67063 15.8697 1.55633 15.9217 1.43045C15.9738 1.30457 16.0004 1.16962 15.9999 1.0334C16.0016 0.897497 15.9756 0.762671 15.9235 0.63716C15.8713 0.511648 15.7941 0.398086 15.6966 0.303409C15.6019 0.205893 15.4884 0.128702 15.3628 0.0765485C15.2373 0.0243954 15.1025 -0.00162437 14.9666 7.84947e-05C14.8304 -0.000365651 14.6954 0.0262152 14.5695 0.0782822C14.4437 0.130349 14.3294 0.206868 14.2333 0.303409L8 6.53668L1.76673 0.303409C1.67063 0.206868 1.55633 0.130349 1.43045 0.0782822C1.30457 0.0262152 1.16962 -0.000365651 1.0334 7.84947e-05C0.897497 -0.00162437 0.762671 0.0243954 0.63716 0.0765485C0.511648 0.128702 0.398086 0.205893 0.303409 0.303409C0.205893 0.398086 0.128702 0.511648 0.0765485 0.63716C0.0243954 0.762671 -0.00162437 0.897497 7.84947e-05 1.0334C-0.000365651 1.16962 0.0262152 1.30457 0.0782822 1.43045C0.130349 1.55633 0.206868 1.67063 0.303409 1.76673L6.53668 8L0.303409 14.2333C0.206868 14.3294 0.130349 14.4437 0.0782822 14.5695C0.0262152 14.6954 -0.000365651 14.8304 7.84947e-05 14.9666C-0.00162437 15.1025 0.0243954 15.2373 0.0765485 15.3628C0.128702 15.4884 0.205893 15.6019 0.303409 15.6966C0.398086 15.7941 0.511648 15.8713 0.63716 15.9235C0.762671 15.9756 0.897497 16.0016 1.0334 15.9999C1.16962 16.0004 1.30457 15.9738 1.43045 15.9217C1.55633 15.8697 1.67063 15.7931 1.76673 15.6966L8 9.46332L14.2333 15.6966C14.3294 15.7931 14.4437 15.8697 14.5695 15.9217C14.6954 15.9738 14.8304 16.0004 14.9666 15.9999C15.2404 15.999 15.5027 15.8899 15.6963 15.6963C15.8899 15.5027 15.999 15.2404 15.9999 14.9666C16.0004 14.8304 15.9738 14.6954 15.9217 14.5695C15.8697 14.4437 15.7931 14.3294 15.6966 14.2333L9.46332 8Z" fill="#DE2D2D"/>
</svg>
