<svg width="50" height="50" viewBox="0 0 50 50" fill="none" xmlns="http://www.w3.org/2000/svg">
<g clip-path="url(#clip0_157_2547)">
<path d="M49.9321 33.8387L47.4322 28.0056L47.4288 28.0072C47.4247 27.9973 47.4238 27.9856 47.4188 27.9756C47.2805 27.6848 46.988 27.4998 46.6664 27.4998H43.724L43.9731 27.2006C44.2331 26.8881 44.2306 26.4331 43.9648 26.1248L38.9649 20.2917L38.9641 20.2925C38.8083 20.11 38.58 20 38.3333 20H27.5003C27.2703 20 27.0503 20.095 26.8928 20.2633L20.1089 27.4998H16.6673C16.4373 27.4998 16.2173 27.5948 16.0598 27.7631L3.56022 41.096C3.55605 41.1002 3.55438 41.106 3.55022 41.1102C3.52105 41.1427 3.49855 41.1818 3.47439 41.2185C3.45439 41.2493 3.43105 41.2785 3.41522 41.3118C3.41272 41.3177 3.40772 41.3218 3.40522 41.3277L0.0719917 48.8274C-0.0430047 49.0858 -0.0188388 49.3832 0.13449 49.6199C0.287818 49.8566 0.551977 49.9991 0.834468 49.9991H20.0005H39.1666C39.4458 49.9991 39.7049 49.8591 39.8591 49.6274L39.8599 49.6282L39.8641 49.6216L39.8657 49.6199L39.8666 49.6182L49.8596 34.6287C50.0163 34.3945 50.0438 34.0971 49.9321 33.8387ZM44.9156 29.1664L35.4367 40.8327H32.6126L42.3348 29.1664H44.9156ZM38.3508 22.1333L42.2415 26.6731L41.3049 27.7981L41.304 27.7989L31.051 40.1027L28.4694 34.2954L38.3508 22.1333ZM29.5511 40.8327H23.3338H16.6673H12.9499L14.9249 36.3887L15.5415 34.9995H26.9587L29.5511 40.8327ZM27.862 21.6666H36.5834L27.1036 33.3329H16.9248L27.862 21.6666ZM17.029 29.1664H18.5456L14.3932 33.5962C14.389 33.6004 14.3874 33.6054 14.384 33.6096C14.3549 33.6421 14.3324 33.6812 14.3082 33.7179C14.2882 33.7487 14.2649 33.7779 14.249 33.8112C14.2465 33.8171 14.2415 33.8212 14.239 33.8271L11.1258 40.8327H6.0918L17.029 29.1664ZM2.11693 48.3324L4.70851 42.4993H11.6675H16.1265L18.7181 48.3324H2.11693ZM17.9498 42.4993H22.0513L20.0005 47.1133L17.9498 42.4993ZM21.283 48.3324L23.8746 42.4993H30.8335H35.2926L37.8841 48.3324H21.283ZM39.3133 47.4433L36.8025 41.7943L46.4439 29.928L48.2222 34.0787L39.3133 47.4433Z" fill="black"/>
<path d="M15 34L27 21.5L27.3536 21.1464C27.4473 21.0527 27.5745 21 27.7071 21H38.5M15 34L12.046 40.4003C12.0157 40.466 12 40.5375 12 40.6098V41C12 41.2761 12.2239 41.5 12.5 41.5H31M15 34H18H27.5M31 41.5L43.2214 26.8344C43.3811 26.6427 43.3751 26.3626 43.2072 26.1779L38.5 21M31 41.5L27.5 34M38.5 21L27.5 34" stroke="#A7CA37" stroke-width="2"/>
<path d="M20.0005 18.3335C18.6222 18.3335 17.5006 17.2118 17.5006 15.8336C17.5006 15.3727 17.1281 15.0002 16.6673 15.0002C16.2065 15.0002 15.834 15.3727 15.834 15.8336C15.834 17.2118 14.7124 18.3335 13.3341 18.3335C12.8733 18.3335 12.5008 18.706 12.5008 19.1668C12.5008 19.6276 12.8733 20.0001 13.3341 20.0001C14.7124 20.0001 15.834 21.1217 15.834 22.5C15.834 22.9608 16.2065 23.3333 16.6673 23.3333C17.1281 23.3333 17.5006 22.9608 17.5006 22.5C17.5006 21.1217 18.6222 20.0001 20.0005 20.0001C20.4613 20.0001 20.8338 19.6276 20.8338 19.1668C20.8338 18.706 20.4613 18.3335 20.0005 18.3335ZM16.6673 20.0026C16.4298 19.6859 16.1481 19.4043 15.8315 19.1668C16.1481 18.9293 16.4298 18.6476 16.6673 18.331C16.9048 18.6476 17.1865 18.9293 17.5031 19.1668C17.1865 19.4043 16.9048 19.6859 16.6673 20.0026Z" fill="#A7CA37"/>
<path d="M36.3884 6.66646C33.1727 6.66646 30.5553 4.04904 30.5553 0.833307C30.5553 0.372488 30.1828 0 29.722 0C29.2611 0 28.8887 0.372488 28.8887 0.833307C28.8887 4.04904 26.2712 6.66646 23.0555 6.66646C22.5947 6.66646 22.2222 7.03895 22.2222 7.49977C22.2222 7.96058 22.5947 8.33307 23.0555 8.33307C26.2712 8.33307 28.8887 10.9505 28.8887 14.1662C28.8887 14.627 29.2611 14.9995 29.722 14.9995C30.1828 14.9995 30.5553 14.627 30.5553 14.1662C30.5553 10.9505 33.1727 8.33307 36.3884 8.33307C36.8492 8.33307 37.2217 7.96058 37.2217 7.49977C37.2217 7.03895 36.8492 6.66646 36.3884 6.66646ZM29.722 10.7322C29.007 9.34888 27.8729 8.21474 26.4896 7.49977C27.8729 6.78479 29.007 5.65066 29.722 4.26737C30.4369 5.65066 31.5711 6.78479 32.9544 7.49977C31.5711 8.21474 30.4369 9.34888 29.722 10.7322Z" fill="#A7CA37"/>
<path d="M44.3 15.8C43.1422 15.8 42.2 14.8578 42.2 13.7C42.2 13.3129 41.8871 13 41.5 13C41.1129 13 40.8 13.3129 40.8 13.7C40.8 14.8578 39.8578 15.8 38.7 15.8C38.3129 15.8 38 16.1129 38 16.5C38 16.8871 38.3129 17.2 38.7 17.2C39.8578 17.2 40.8 18.1422 40.8 19.3C40.8 19.6871 41.1129 20 41.5 20C41.8871 20 42.2 19.6871 42.2 19.3C42.2 18.1422 43.1422 17.2 44.3 17.2C44.6871 17.2 45 16.8871 45 16.5C45 16.1129 44.6871 15.8 44.3 15.8ZM41.5 17.2021C41.3005 16.9361 41.0639 16.6995 40.7979 16.5C41.0639 16.3005 41.3005 16.0639 41.5 15.7979C41.6995 16.0639 41.9361 16.3005 42.2021 16.5C41.9361 16.6995 41.6995 16.9361 41.5 17.2021Z" fill="#A7CA37"/>
</g>
<defs>
<clipPath id="clip0_157_2547">
<rect width="50" height="50" fill="white"/>
</clipPath>
</defs>
</svg>
