<svg width="60" height="66" viewBox="0 0 60 66" fill="none" xmlns="http://www.w3.org/2000/svg">
<path d="M13.7002 49.3311C12.4287 49.3311 11.3936 50.3662 11.3936 51.6387C11.3936 52.9092 12.4287 53.9434 13.7002 53.9434C14.9717 53.9434 16.0068 52.9092 16.0068 51.6387C16.0068 50.3662 14.9717 49.3311 13.7002 49.3311ZM13.7002 52.3809C13.29 52.3809 12.9561 52.0478 12.9561 51.6387C12.9561 51.2275 13.29 50.8936 13.7002 50.8936C14.1104 50.8936 14.4443 51.2275 14.4443 51.6387C14.4443 52.0478 14.1104 52.3809 13.7002 52.3809ZM43.3008 42.4551H38.2686C37.8369 42.4551 37.4873 42.8047 37.4873 43.2363V48.2627C37.4873 48.6943 37.8369 49.0439 38.2686 49.0439H43.3008C43.7324 49.0439 44.082 48.6943 44.082 48.2627V43.2363C44.082 42.8047 43.7314 42.4551 43.3008 42.4551ZM42.5195 47.4814H39.0498V44.0176H42.5195V47.4814ZM49.2188 63.4228H47.7744V40.959C47.7744 40.665 47.6094 40.3965 47.3477 40.2627L35.3564 34.1602V22.6152C35.3564 22.1836 35.0068 21.834 34.5752 21.834H33.1084V17.7959C33.1084 17.3643 32.7588 17.0146 32.3272 17.0146H15.9482C15.5166 17.0146 15.167 17.3643 15.167 17.7959V21.833H13.7002C13.2686 21.833 12.9189 22.1826 12.9189 22.6143V31.335H4.80372C4.37207 31.335 4.02247 31.6846 4.02247 32.1162V49.5879L0.321294 52.2861C0.153325 52.4082 0.0410201 52.5928 0.00977013 52.7969C-0.0224564 53.0019 0.0293014 53.2109 0.151372 53.3789L1.72071 55.5215C1.87403 55.7305 2.11133 55.8408 2.35157 55.8408C2.51172 55.8408 2.67286 55.792 2.81153 55.6904L4.02247 54.8076V63.4209H2.57813C2.14649 63.4209 1.79688 63.7705 1.79688 64.2021C1.79688 64.6338 2.14649 64.9834 2.57813 64.9834H49.2188C49.6504 64.9834 50 64.6338 50 64.2021C50 63.7705 49.6504 63.4228 49.2188 63.4228ZM39.0488 53.624L39.2275 53.3799C39.3496 53.2129 39.4004 53.0029 39.3691 52.7988C39.3379 52.5947 39.2256 52.4102 39.0576 52.2881L39.0488 52.2822V52.0312H42.5186V55.4922H39.0488V53.624ZM37.5049 53.0889L36.8604 53.9697L26.1416 46.1523C26.0049 46.0527 25.8428 46.0019 25.6816 46.0019C25.5205 46.0019 25.3584 46.0518 25.2217 46.1523L21.9453 48.542L21.0176 47.8643L25.6816 44.4648L37.5049 53.0889ZM16.7295 18.5771H31.5459V21.833H16.7295V18.5771ZM14.4814 23.3965H33.7939V48.4492L26.1416 42.8682C25.8672 42.668 25.4951 42.668 25.2207 42.8682L19.6895 46.8994L14.4814 43.1025V23.3965ZM12.9189 39.4697H9.03614V36.0088H12.9189V39.4697ZM5.58497 32.8984H12.9189V34.4463H8.25489C7.82325 34.4463 7.47364 34.7959 7.47364 35.2275V40.251C7.47364 40.6826 7.82325 41.0322 8.25489 41.0322H12.9189V43.1025L5.58497 48.4502V32.8984ZM2.52051 53.9707L1.87403 53.0889L13.7002 44.4668L25.5264 53.0898L24.8818 53.9707L14.1602 46.1523C13.8857 45.9521 13.5137 45.9521 13.2393 46.1523L2.52051 53.9707ZM11.3975 63.4228V58.0234H16.0029V63.4228H11.3975ZM17.5654 63.4228V57.2422C17.5654 56.8105 17.2158 56.4609 16.7842 56.4609H10.6162C10.1846 56.4609 9.83497 56.8105 9.83497 57.2422V63.4228H5.58497V53.6699L13.7002 47.751L21.8154 53.668V63.4228H17.5654ZM23.3789 63.4228V54.8076L24.5928 55.6924C24.9414 55.9463 25.4297 55.8701 25.6836 55.5225L27.25 53.3799C27.3721 53.2129 27.4229 53.0029 27.3916 52.7978C27.3594 52.5928 27.2471 52.4092 27.0801 52.2871L23.2705 49.5098L25.6816 47.751L33.7949 53.668V63.4228H23.3789ZM35.3564 63.4228V54.8076L36.5703 55.6924C36.709 55.7939 36.8701 55.8428 37.0303 55.8428C37.1924 55.8428 37.3525 55.791 37.4873 55.6943V56.2725C37.4873 56.7041 37.8369 57.0537 38.2686 57.0537H43.3008C43.7324 57.0537 44.082 56.7041 44.082 56.2725V51.249C44.082 50.8174 43.7324 50.4678 43.3008 50.4678H38.2686C37.8721 50.4678 37.5449 50.7637 37.4951 51.1475L35.3574 49.5889V35.9131L46.2129 41.4375V63.4228H35.3564Z" fill="black"/>
<mask id="path-2-inside-1_401_8" fill="white">
<rect x="17" y="27" width="6" height="6" rx="1"/>
</mask>
<rect x="17" y="27" width="6" height="6" rx="1" stroke="#A7CA37" stroke-width="3" mask="url(#path-2-inside-1_401_8)"/>
<mask id="path-3-inside-2_401_8" fill="white">
<rect x="17" y="34" width="6" height="6" rx="1"/>
</mask>
<rect x="17" y="34" width="6" height="6" rx="1" stroke="#A7CA37" stroke-width="3" mask="url(#path-3-inside-2_401_8)"/>
<mask id="path-4-inside-3_401_8" fill="white">
<rect x="25" y="27" width="6" height="6" rx="1"/>
</mask>
<rect x="25" y="27" width="6" height="6" rx="1" stroke="#A7CA37" stroke-width="3" mask="url(#path-4-inside-3_401_8)"/>
<mask id="path-5-inside-4_401_8" fill="white">
<rect x="25" y="34" width="6" height="6" rx="1"/>
</mask>
<rect x="25" y="34" width="6" height="6" rx="1" stroke="#A7CA37" stroke-width="3" mask="url(#path-5-inside-4_401_8)"/>
<path d="M58.0164 25.4326C56.6662 25.7095 55.3421 24.836 55.0653 23.4857C54.9728 23.0343 54.5331 22.7442 54.0816 22.8368C53.6302 22.9293 53.3401 23.369 53.4327 23.8205C53.7095 25.1707 52.836 26.4947 51.4858 26.7715C51.0343 26.8641 50.7443 27.3038 50.8368 27.7552C50.9294 28.2067 51.3691 28.4967 51.8205 28.4042C53.1707 28.1274 54.4947 29.0009 54.7716 30.3511C54.8641 30.8025 55.3038 31.0926 55.7553 31.0001C56.2067 30.9075 56.4968 30.4678 56.4042 30.0164C56.1274 28.6662 57.0009 27.3421 58.3511 27.0653C58.8025 26.9728 59.0926 26.533 59.0001 26.0816C58.9075 25.6302 58.4678 25.3401 58.0164 25.4326ZM55.0863 27.7372C54.7901 27.4747 54.4576 27.2553 54.0997 27.0863C54.3622 26.79 54.5815 26.4575 54.7506 26.0996C55.0468 26.3621 55.3793 26.5815 55.7372 26.7506C55.4747 27.0468 55.2554 27.3793 55.0863 27.7372Z" fill="#A7CA37"/>
<path d="M55.4818 11.2145C52.3236 10.609 50.2458 7.54559 50.8513 4.38737C50.9381 3.9348 50.6424 3.49884 50.1898 3.41207C49.7372 3.32531 49.3013 3.621 49.2145 4.07358C48.609 7.2318 45.5456 9.30959 42.3874 8.70413C41.9348 8.61736 41.4988 8.91306 41.4121 9.36563C41.3253 9.81821 41.621 10.2542 42.0736 10.3409C45.2318 10.9464 47.3096 14.0098 46.7041 17.168C46.6174 17.6206 46.9131 18.0566 47.3656 18.1433C47.8182 18.2301 48.2542 17.9344 48.3409 17.4818C48.9464 14.3236 52.0098 12.2458 55.1681 12.8513C55.6206 12.938 56.0566 12.6424 56.1434 12.1898C56.2301 11.7372 55.9344 11.3012 55.4818 11.2145ZM48.1691 13.9523C47.7274 12.4591 46.8271 11.1317 45.6031 10.1691C47.0963 9.72736 48.4237 8.82705 49.3863 7.60312C49.8281 9.09628 50.7284 10.4237 51.9523 11.3863C50.4591 11.828 49.1318 12.7284 48.1691 13.9523Z" fill="#A7CA37"/>
<path d="M36.734 2.88342C35.5998 3.11595 34.4875 2.38218 34.255 1.24797C34.1773 0.868759 33.8079 0.625078 33.4287 0.702823C33.0495 0.780568 32.8058 1.14994 32.8835 1.52915C33.1161 2.66336 32.3823 3.77559 31.2481 4.00812C30.8689 4.08587 30.6252 4.45523 30.7029 4.83445C30.7807 5.21366 31.1501 5.45734 31.5293 5.3796C32.6635 5.14706 33.7757 5.88083 34.0082 7.01504C34.086 7.39426 34.4553 7.63794 34.8346 7.56019C35.2138 7.48245 35.4575 7.11308 35.3797 6.73387C35.1472 5.59966 35.8809 4.48743 37.0152 4.25489C37.3944 4.17715 37.6381 3.80778 37.5603 3.42857C37.4826 3.04936 37.1132 2.80567 36.734 2.88342ZM34.2726 4.8193C34.0238 4.59879 33.7445 4.41453 33.4438 4.27252C33.6643 4.02366 33.8486 3.74436 33.9906 3.44371C34.2395 3.66423 34.5188 3.84849 34.8194 3.9905C34.5989 4.23936 34.4146 4.51865 34.2726 4.8193Z" fill="#A7CA37"/>
</svg>
