<svg width="60" height="73" viewBox="0 0 60 73" fill="none" xmlns="http://www.w3.org/2000/svg">
<path d="M15.6266 49.8484H12.1105C11.2005 49.8484 10.4599 50.5883 10.4599 51.4982V70.8896C10.4599 71.7996 11.2005 72.5402 12.1105 72.5402H15.6266C16.5365 72.5402 17.2764 71.7996 17.2764 70.8896V51.4982C17.2764 50.5882 16.5364 49.8484 15.6266 49.8484ZM15.7426 70.8896C15.7426 70.9541 15.6901 71.0064 15.6265 71.0064H12.1105C12.046 71.0064 11.9937 70.954 11.9937 70.8896V51.4982C11.9937 51.4345 12.0461 51.3821 12.1105 51.3821H15.6266C15.6902 51.3821 15.7427 51.4345 15.7427 51.4982L15.7426 70.8896Z" fill="black"/>
<path d="M26.1921 55.7026H22.676C21.766 55.7026 21.0254 56.4433 21.0254 57.3532V70.8897C21.0254 71.7997 21.766 72.5403 22.676 72.5403H26.1921C27.1021 72.5403 27.8427 71.7997 27.8427 70.8897V57.3532C27.8427 56.4433 27.1021 55.7026 26.1921 55.7026ZM26.309 70.8896C26.309 70.9541 26.2565 71.0064 26.1922 71.0064H22.6761C22.6116 71.0064 22.5593 70.954 22.5593 70.8896V57.3532C22.5593 57.2888 22.6117 57.2364 22.6761 57.2364H26.1922C26.2566 57.2364 26.309 57.2889 26.309 57.3532V70.8896Z" fill="black"/>
<path d="M36.7577 49.8484H33.2424C32.3324 49.8484 31.5918 50.5883 31.5918 51.4982V70.8896C31.5918 71.7996 32.3324 72.5402 33.2424 72.5402H36.7577C37.6677 72.5402 38.4083 71.7996 38.4083 70.8896V51.4982C38.4083 50.5882 37.6676 49.8484 36.7577 49.8484ZM36.8745 70.8896C36.8745 70.9541 36.8221 71.0064 36.7577 71.0064H33.2424C33.1779 71.0064 33.1256 70.954 33.1256 70.8896V51.4982C33.1256 51.4345 33.178 51.3821 33.2424 51.3821H36.7577C36.8222 51.3821 36.8745 51.4345 36.8745 51.4982V70.8896Z" fill="black"/>
<path d="M47.324 53.1138H43.8079C42.898 53.1138 42.1573 53.8537 42.1573 54.7636V70.8897C42.1573 71.7997 42.898 72.5403 43.8079 72.5403H47.324C48.234 72.5403 48.9746 71.7997 48.9746 70.8897V54.7636C48.9746 53.8536 48.2339 53.1138 47.324 53.1138ZM47.4408 70.8897C47.4408 70.9542 47.3884 71.0065 47.324 71.0065H43.8079C43.7435 71.0065 43.6911 70.9541 43.6911 70.8897V54.7636C43.6911 54.6999 43.7436 54.6475 43.8079 54.6475H47.324C47.3885 54.6475 47.4408 54.6999 47.4408 54.7636V70.8897Z" fill="black"/>
<path d="M57.8896 44.1973H54.3734C53.4635 44.1973 52.7236 44.9372 52.7236 45.8471V70.8897C52.7236 71.7997 53.4636 72.5403 54.3734 72.5403H57.8896C58.7995 72.5403 59.5401 71.7997 59.5401 70.8897V45.8471C59.5401 44.9372 58.7995 44.1973 57.8896 44.1973ZM58.0065 70.8897C58.0065 70.9542 57.954 71.0065 57.8897 71.0065H54.3735C54.3099 71.0065 54.2574 70.9541 54.2574 70.8897V45.8471C54.2574 45.7834 54.3099 45.731 54.3735 45.731H57.8897C57.9541 45.731 58.0065 45.7834 58.0065 45.8471V70.8897Z" fill="black"/>
<path d="M23.9806 52.0815C24.248 52.2791 24.6178 52.2814 24.8883 52.0815L35.0951 44.5865L45.254 49.1024C45.5678 49.2402 45.937 49.1549 46.1572 48.8897L55.3662 37.7402L55.3657 40.0564C55.3657 40.4796 55.7087 40.8233 56.1326 40.8233C56.5558 40.8233 56.8995 40.4804 56.8995 40.0564L56.9003 35.6101C56.9003 35.2004 56.5181 34.7956 56.0465 34.8487C56.046 34.8487 56.0455 34.8485 56.045 34.8485L51.622 35.3623C51.2011 35.4109 50.9 35.7914 50.9487 36.2123C50.9974 36.6332 51.3772 36.9417 51.7987 36.8855L54.3246 36.5924L45.3454 47.4646L35.3115 43.004C35.0606 42.8931 34.7686 42.9231 34.5461 43.0871L24.4344 50.5125L14.322 43.0872C13.979 42.8363 13.4997 42.9104 13.2503 43.2511C12.9994 43.5927 13.0728 44.0727 13.4143 44.3228L23.9806 52.0815Z" fill="#A7CA37"/>
<path d="M25.4178 41.9295C30.5149 41.9295 34.6615 37.7865 34.6615 32.6947C34.6615 27.6029 30.5149 23.46 25.4178 23.46C20.326 23.46 16.183 27.6029 16.183 32.6947C16.183 37.7865 20.3259 41.9295 25.4178 41.9295ZM25.4178 24.9937C29.6693 24.9937 33.1277 28.4483 33.1277 32.6946C33.1277 36.9409 29.6692 40.3956 25.4178 40.3956C21.1715 40.3956 17.7168 36.9409 17.7168 32.6946C17.7168 28.4483 21.1715 24.9937 25.4178 24.9937Z" fill="black"/>
<path d="M25.5646 35.2739H23.6069C23.183 35.2739 22.84 35.6168 22.84 36.0408C22.84 36.4647 23.183 36.8077 23.6069 36.8077H24.6576V37.2113C24.6576 37.6352 25.0006 37.9782 25.4245 37.9782C25.8484 37.9782 26.1914 37.6352 26.1914 37.2113V36.7157C27.2316 36.4369 28.0038 35.4947 28.0038 34.3676C28.0038 33.0226 26.9097 31.9277 25.5647 31.9277C25.4804 31.9277 25.2028 31.9277 25.2801 31.9277C24.7806 31.9277 24.3739 31.521 24.3739 31.0215C24.3739 30.522 24.7806 30.1161 25.2801 30.1161H27.237C27.6609 30.1161 28.0039 29.7731 28.0039 29.3492C28.0039 28.9252 27.6609 28.5823 27.237 28.5823H26.1914V28.1788C26.1914 27.7548 25.8484 27.4119 25.4245 27.4119C25.0006 27.4119 24.6576 27.7548 24.6576 28.1788V28.6729C23.6148 28.95 22.84 29.8937 22.84 31.0223C22.84 32.3673 23.935 33.4615 25.28 33.4615H25.5646C26.0641 33.4615 26.47 33.8681 26.47 34.3676C26.47 34.8671 26.0641 35.2739 25.5646 35.2739Z" fill="black"/>
<path d="M8.0164 23.9807C6.66619 24.2576 5.34214 23.384 5.06533 22.0338C4.97278 21.5824 4.53307 21.2923 4.08164 21.3849C3.63021 21.4774 3.34012 21.9171 3.43267 22.3686C3.70949 23.7188 2.83598 25.0428 1.48577 25.3196C1.03434 25.4122 0.744255 25.8519 0.836806 26.3033C0.929357 26.7547 1.36907 27.0448 1.82049 26.9523C3.1707 26.6755 4.49475 27.549 4.77156 28.8992C4.86411 29.3506 5.30382 29.6407 5.75525 29.5482C6.20668 29.4556 6.49677 29.0159 6.40422 28.5645C6.1274 27.2143 7.00091 25.8902 8.35112 25.6134C8.80255 25.5208 9.09264 25.0811 9.00009 24.6297C8.90753 24.1783 8.46783 23.8882 8.0164 23.9807ZM5.08631 26.2853C4.79006 26.0228 4.45757 25.8034 4.09967 25.6344C4.36217 25.3381 4.58153 25.0056 4.75058 24.6477C5.04683 24.9102 5.37932 25.1296 5.73722 25.2987C5.47472 25.5949 5.25536 25.9274 5.08631 26.2853Z" fill="#A7CA37"/>
<path d="M26.4692 9.21448C23.311 8.60901 21.2332 5.54559 21.8387 2.38737C21.9254 1.9348 21.6297 1.49884 21.1772 1.41207C20.7246 1.32531 20.2886 1.621 20.2019 2.07358C19.5964 5.2318 16.533 7.30959 13.3748 6.70413C12.9222 6.61736 12.4862 6.91306 12.3995 7.36563C12.3127 7.81821 12.6084 8.25417 13.061 8.34093C16.2192 8.9464 18.297 12.0098 17.6915 15.168C17.6047 15.6206 17.9004 16.0566 18.353 16.1433C18.8056 16.2301 19.2415 15.9344 19.3283 15.4818C19.9338 12.3236 22.9972 10.2458 26.1554 10.8513C26.608 10.938 27.044 10.6424 27.1307 10.1898C27.2175 9.7372 26.9218 9.30124 26.4692 9.21448ZM19.1565 11.9523C18.7147 10.4591 17.8144 9.13174 16.5905 8.1691C18.0837 7.72736 19.411 6.82705 20.3737 5.60312C20.8154 7.09628 21.7157 8.42367 22.9397 9.38631C21.4465 9.82805 20.1191 10.7284 19.1565 11.9523Z" fill="#A7CA37"/>
<path d="M36.7213 16.8834C35.5871 17.116 34.4749 16.3822 34.2424 15.248C34.1646 14.8688 33.7953 14.6251 33.4161 14.7028C33.0368 14.7806 32.7932 15.1499 32.8709 15.5291C33.1034 16.6634 32.3697 17.7756 31.2355 18.0081C30.8562 18.0859 30.6126 18.4552 30.6903 18.8344C30.768 19.2137 31.1374 19.4573 31.5166 19.3796C32.6508 19.1471 33.7631 19.8808 33.9956 21.015C34.0733 21.3943 34.4427 21.6379 34.8219 21.5602C35.2011 21.4824 35.4448 21.1131 35.3671 20.7339C35.1345 19.5997 35.8683 18.4874 37.0025 18.2549C37.3817 18.1771 37.6254 17.8078 37.5477 17.4286C37.4699 17.0494 37.1006 16.8057 36.7213 16.8834ZM34.26 18.8193C34.0111 18.5988 33.7318 18.4145 33.4312 18.2725C33.6517 18.0237 33.836 17.7444 33.978 17.4437C34.2268 17.6642 34.5061 17.8485 34.8068 17.9905C34.5863 18.2394 34.402 18.5187 34.26 18.8193Z" fill="#A7CA37"/>
</svg>
